<?xml version="1.0" standalone="no"?>
<!DOCTYPE svg PUBLIC "-//W3C//DTD SVG 1.1//EN" "http://www.w3.org/Graphics/SVG/1.1/DTD/svg11.dtd" >
<svg xmlns="http://www.w3.org/2000/svg">
<metadata>
Created by Font 20130207 at Tue May  7 17:07:22 2013
 By Dario Novoa
Copyright (c) 1989, 1995 Adobe Systems Incorporated.  All Rights Reserved.
</metadata>
<defs>
<font id="miksrdyxbp" >
  <font-face 
    font-family="name"
    font-weight="300"
    font-stretch="normal"
    units-per-em="1000"
    panose-1="2 0 4 3 4 0 0 2 0 4"
    ascent="800"
    descent="-200"
    x-height="532"
    cap-height="718"
    bbox="-119 -293 1047 922"
    underline-thickness="50"
    underline-position="-75"
    unicode-range="U+0001-2122"
  />
<missing-glyph horiz-adv-x="250" 
 />
    <glyph glyph-name=".notdef" horiz-adv-x="250" 
 />
    <glyph glyph-name=".null" horiz-adv-x="0" 
 />
    <glyph glyph-name="nonmarkingreturn" horiz-adv-x="500" 
 />
    <glyph glyph-name="Eth" horiz-adv-x="630" 
d="M314 359q0 -38 -43 -38h-120v-245h126q116 0 172 82t56 202q0 190 -85.5 233t-148.5 43h-120v-239h120q43 0 43 -38zM110 0q-47 0 -47 48v273h-38q-43 0 -43 38t43 38h38v267q0 48 47 48h173q152 0 234 -101t82 -257t-81.5 -255t-222.5 -99h-185z" />
    <glyph glyph-name="eth" horiz-adv-x="538" 
d="M123 262q0 -34 8.5 -68t26.5 -61.5t45.5 -45t65.5 -17.5t65.5 17.5t45.5 45t26.5 61.5t8.5 68t-8.5 68t-26.5 61.5t-45.5 45t-65.5 17.5t-65.5 -17.5t-45.5 -45t-26.5 -61.5t-8.5 -68zM348 675q155 -137 155 -364q0 -226 -89.5 -271.5t-147.5 -45.5q-108 0 -169.5 80
t-61.5 188t61.5 189t154.5 81t138 -60l2 2q-32 87 -121 161l-87 -42q-20 -9 -29 -9t-16.5 7.5t-7.5 20.5t17 22l77 37q-16 13 -33 20.5t-39 17.5t-22 36.5t45 26.5t127 -61l92 46q18 9 29 9q24 0 24 -22t-21 -31z" />
    <glyph glyph-name="Lslash" horiz-adv-x="389" 
d="M102 718q44 0 44 -47v-242l67 38q25 12 39 12t24.5 -10.5t10.5 -29.5t-24 -35l-117 -67v-255h188q43 0 43 -41t-43 -41h-229q-47 0 -47 48v238l-13 -8q-18 -11 -36 -11q-36 0 -36 40q0 22 24 35l61 36v293q0 47 44 47z" />
    <glyph glyph-name="lslash" 
d="M102 -6q-44 0 -44 47v243l-21 -21q-16 -16 -33 -16t-28 11.5t-11 27.5t17 33l76 76v330q0 47 44 47t44 -47v-242l21 21q16 16 33 16t28 -11.5t11 -27.5t-17 -33l-76 -76v-331q0 -47 -44 -47z" />
    <glyph glyph-name="Scaron" horiz-adv-x="481" 
d="M21 80q0 45 37 45q11 -1 25 -9q13 -8 33 -18t45 -20q25 -8 59 -8q66 0 106 42t40 94q0 51 -25 75t-63 40t-81 30q-43 13 -81 35q-88 50 -88 149q0 68 59 125q59 58 160 58q102 0 151 -50q15 -16 15 -32q-1 -16 -11 -28t-26 -12t-27 7t-37 23t-76 16t-82 -28t-32 -70
t25 -64t63 -39q38 -16 81 -30q169 -54 169 -192q0 -93 -65 -159t-181 -66q-118 0 -176 52q-18 16 -17 34zM357 895q36 0 36 -38q0 -25 -23 -35l-129 -55l-129 55q-23 10 -23 35q0 38 36 38q10 0 22 -5l94 -37l94 37q12 5 22 5z" />
    <glyph glyph-name="scaron" horiz-adv-x="444" 
d="M100 498q54 40 142 40q86 0 144 -56q18 -16 18 -34q0 -40 -40 -40q-14 0 -26 8t-37 28q-26 18 -69 18q-98 0 -98 -67q0 -37 74 -69q32 -14 68 -26q142 -52 142 -142q0 -78 -57 -121t-118 -43q-99 0 -159 32t-60 69q0 18 11 29t25 11t29 -10q14 -11 48 -33t86 -22
q51 0 79 22t28 50q0 26 -21 44t-53 33t-68 29t-68 34q-74 43 -74 109q0 67 54 107zM338 735q36 0 36 -38q0 -25 -23 -35l-129 -55l-129 55q-23 10 -23 35q0 38 36 38q10 0 22 -5l94 -37l94 37q12 5 22 5z" />
    <glyph glyph-name="Yacute" horiz-adv-x="500" 
d="M250 -6q-44 0 -44 47v293l-191 311q-14 22 -14 37q0 36 40 36q28 0 44 -28l165 -269l165 269q16 28 44 28q40 0 40 -36q0 -15 -14 -37l-191 -311v-293q0 -47 -44 -47zM172 767q-15 -1 -24 15t-9 26q0 25 35 38l115 47q23 9 39 9q15 0 24 -16t9 -25q0 -25 -35 -38
l-115 -47q-24 -9 -39 -9z" />
    <glyph glyph-name="yacute" horiz-adv-x="444" 
d="M17 502q1 16 13 26t36 10t35 -33l122 -365h2l120 365q12 33 34 33q48 0 48 -37q0 -14 -12 -49l-222 -635q-12 -33 -35 -33q-48 0 -48 37q0 12 13 49l56 149l-150 433q-12 34 -12 50zM144 607q-15 -1 -24 15t-9 26q0 25 35 38l115 47q23 9 39 9q15 0 24 -16t9 -25
q0 -25 -35 -38l-115 -47q-24 -9 -39 -9z" />
    <glyph glyph-name="Thorn" horiz-adv-x="519" 
d="M102 718q44 0 44 -47v-71h133q105 0 168 -64.5t63 -158t-65.5 -157.5t-162.5 -64h-136v-115q0 -47 -44 -47t-44 47v630q0 47 44 47zM146 524v-292h130q63 0 104.5 41.5t41.5 103.5q0 95 -54.5 121t-95.5 26h-126z" />
    <glyph glyph-name="thorn" horiz-adv-x="556" 
d="M106 -216q-44 0 -44 47v894q0 47 44 47t44 -47v-260h2q38 73 142 73t165.5 -80t61.5 -192t-62 -192t-157 -80q-96 0 -150 72h-2v-235q0 -47 -44 -47zM287 70q74 0 110 58.5t36 137.5t-36 137.5t-110 58.5t-110 -58.5t-36 -137.5t36 -137.5t110 -58.5z" />
    <glyph glyph-name="Zcaron" horiz-adv-x="556" 
d="M76 0q-52 0 -52 40q0 22 17 47l366 549h-323q-43 0 -43 38t43 38h389q22 0 34 -10t12 -27q0 -18 -22 -50l-367 -549h359q43 0 43 -38t-43 -38h-413zM394 895q36 0 36 -38q0 -25 -23 -35l-129 -55l-129 55q-23 10 -23 35q0 38 36 38q10 0 22 -5l94 -37l94 37q12 5 22 5z
" />
    <glyph glyph-name="zcaron" horiz-adv-x="444" 
d="M370 532q43 0 43 -31q0 -20 -18 -45l-257 -378l3 -2h239q44 0 44 -38t-44 -38h-317q-43 0 -43 31q0 20 18 45l254 380h-218q-44 0 -44 38t44 38h296zM338 735q36 0 36 -38q0 -25 -23 -35l-129 -55l-129 55q-23 10 -23 35q0 38 36 38q10 0 22 -5l94 -37l94 37q12 5 22 5z
" />
    <glyph glyph-name="onehalf" horiz-adv-x="805" 
d="M483 0q-30 0 -30 22q0 7 12 22l171 217q26 33 26 56t-17.5 36.5t-41.5 13.5q-41 0 -65 -26t-24 -53t-30 -27t-30 33q0 56 40 94.5t105 38.5q66 0 100.5 -31.5t34.5 -66.5t-9 -53.5t-27 -40.5l-145 -175h148q38 0 38 -30t-38 -30h-218zM187 321q0 -36 -36 -36
q-14 0 -25 8.5t-11 27.5v331h-51q-28 0 -28 30t28 30h104q19 0 19 -14v-377zM471 726q20 0 28.5 -9t8.5 -20t-14 -43l-266 -638q-13 -30 -42 -30q-28 0 -28 27q0 10 14 45l266 638q13 30 33 30z" />
    <glyph glyph-name="onequarter" horiz-adv-x="805" 
d="M646 157v198h-2l-116 -198h118zM682 -6q-36 0 -36 31v72h-178q-23 0 -23 24q0 13 14 35l159 239q21 32 50 32q50 0 50 -44v-226h24q27 0 27 -30t-27 -30h-24v-72q0 -31 -36 -31zM187 321q0 -36 -36 -36q-14 0 -25 8.5t-11 27.5v331h-51q-28 0 -28 30t28 30h104
q19 0 19 -14v-377zM501 726q20 0 28.5 -9t8.5 -20t-14 -43l-266 -638q-13 -30 -42 -30q-28 0 -28 27q0 10 14 45l266 638q13 30 33 30z" />
    <glyph glyph-name="onesuperior" horiz-adv-x="229" 
d="M159 321q0 -36 -36 -36q-14 0 -25 8.5t-11 27.5v331h-51q-28 0 -28 30t28 30h104q19 0 19 -14v-377z" />
    <glyph glyph-name="threequarters" horiz-adv-x="805" 
d="M646 157v198h-2l-116 -198h118zM682 -6q-36 0 -36 31v72h-178q-23 0 -23 24q0 13 14 35l159 239q21 32 50 32q50 0 50 -44v-226h24q27 0 27 -30t-27 -30h-24v-72q0 -31 -36 -31zM201.5 484q-56.5 0 -56.5 25q0 13 6.5 19t30.5 12q52 13 52 65q0 20 -16 36.5t-46 16.5
t-45.5 -16t-18.5 -36t-29 -20q-25 0 -25 36t31 66t93 30t95 -32.5t33 -85.5t-55 -83q38 -11 58.5 -39t20.5 -61q0 -62 -44.5 -97t-93.5 -35q-78 0 -114 33.5t-36 68.5t28 35q17 0 30 -26q24 -50 80 -51q32 0 55 22t23 54q0 63 -56.5 63zM561 726q20 0 28.5 -9t8.5 -20
t-14 -43l-266 -638q-13 -30 -42 -30q-28 0 -28 27q0 10 14 45l266 638q13 30 33 30z" />
    <glyph glyph-name="threesuperior" horiz-adv-x="348" 
d="M189.5 484q-56.5 0 -56.5 25q0 13 6.5 19t30.5 12q52 13 52 65q0 20 -16 36.5t-46 16.5t-45.5 -16t-18.5 -36t-29 -20q-25 0 -25 36t31 66t93 30t95 -32.5t33 -85.5t-55 -83q38 -11 58.5 -39t20.5 -61q0 -62 -44.5 -97t-93.5 -35q-78 0 -114 33.5t-36 68.5t28 35
q17 0 30 -26q24 -50 80 -51q32 0 55 22t23 54q0 63 -56.5 63z" />
    <glyph glyph-name="twosuperior" horiz-adv-x="348" 
d="M61 291q-30 0 -30 22q0 7 12 22l171 217q26 33 26 56t-17.5 36.5t-41.5 13.5q-41 0 -65 -26t-24 -53t-30 -27t-30 33q0 56 40 94.5t105 38.5q66 0 100.5 -31.5t34.5 -66.5t-9 -53.5t-27 -40.5l-145 -175h148q38 0 38 -30t-38 -30h-218z" />
    <glyph glyph-name="brokenbar" horiz-adv-x="222" 
d="M111 -175q-41 0 -41 43v264q0 43 41 43t41 -43v-264q0 -43 -41 -43zM111 325q-41 0 -41 43v264q0 43 41 43t41 -43v-264q0 -43 -41 -43z" />
    <glyph glyph-name="minus" horiz-adv-x="600" 
d="M553 253q0 -41 -43 -41h-420q-43 0 -43 41t43 41h420q43 0 43 -41z" />
    <glyph glyph-name="multiply" horiz-adv-x="600" 
d="M492 483q18 0 28 -11.5t10 -27.5t-21 -38l-153 -153l153 -153q21 -22 21 -38t-10 -27.5t-28 -11.5t-40 23l-152 152l-152 -152q-22 -23 -40 -23t-28 11.5t-10 27.5t21 38l153 153l-153 153q-21 22 -21 38t10 27.5t28 11.5t40 -23l152 -151l152 151q22 23 40 23z" />
    <glyph glyph-name="space" unicode=" " horiz-adv-x="250" 
 />
    <glyph glyph-name="exclam" unicode="!" horiz-adv-x="296" 
d="M97 45q0 21 15 36t36 15t36 -15t15 -36t-15 -36t-36 -15t-36 15t-15 36zM148 191q-44 0 -44 47v433q0 47 44 47t44 -47v-433q0 -47 -44 -47z" />
    <glyph glyph-name="quotedbl" unicode="&#x22;" horiz-adv-x="334" 
d="M96 496q-41 0 -41 43v136q0 43 41 43t41 -43v-136q0 -43 -41 -43zM238 496q-41 0 -41 43v136q0 43 41 43t41 -43v-136q0 -43 -41 -43z" />
    <glyph glyph-name="numbersign" unicode="#" horiz-adv-x="536" 
d="M317 282l21 148h-119l-21 -148h119zM492 249q0 -33 -41 -33h-70l-26 -186q-4 -36 -38 -36t-34 34q0 8 1.5 18t3.5 24l20 146h-119l-26 -186q-4 -36 -38 -36t-34 34q0 8 1.5 18t3.5 24l20 146h-61q-41 0 -41 33t41 33h70l21 148h-61q-41 0 -41 33t41 33h70l26 186
q4 36 38 36t34 -34q0 -8 -1.5 -18t-3.5 -24l-20 -146h119l26 186q4 36 38 36t34 -34q0 -8 -1.5 -18t-3.5 -24l-20 -146h61q41 0 41 -33t-41 -33h-70l-21 -148h61q41 0 41 -33z" />
    <glyph glyph-name="dollar" unicode="$" horiz-adv-x="481" 
d="M338 287q-28 27 -78 45v-257q51 11 78.5 48.5t27.5 86.5q0 50 -28 77zM239 -74q-21 0 -21 21v47q-74 0 -119 20.5t-61.5 36.5t-16.5 32t8.5 29t24.5 13t30.5 -8.5t48 -27.5t85.5 -19v277q-97 34 -143.5 69.5t-46.5 108.5t52 129t138 64v47q0 21 21 21t21 -21v-47
q99 -7 126 -37t27 -46t-10.5 -27.5t-25.5 -11.5q-17 0 -49 20t-68 26v-219q95 -33 147.5 -73.5t52.5 -130.5q0 -134 -76 -174.5t-124 -46.5v-51q0 -21 -21 -21zM146 480q24 -23 72 -41v203q-42 -5 -69 -32t-27 -67t24 -63z" />
    <glyph glyph-name="percent" unicode="%" horiz-adv-x="741" 
d="M508 726q20 0 28.5 -9t8.5 -18t-14 -45l-266 -638q-13 -30 -42 -30q-28 0 -28 27q0 10 14 45l266 638q13 30 33 30zM194 380q-38 0 -66 14t-47.5 37t-29 54t-9.5 84t41 101t111 48t111 -48t41 -101t-9.5 -84t-29 -54t-47.5 -37t-66 -14zM547 48q24 0 40.5 10.5t26.5 27
t14.5 37t4.5 40.5t-4.5 40.5t-14.5 37t-26.5 27t-40.5 10.5t-40.5 -10.5t-26.5 -27t-14.5 -37t-4.5 -40.5t4.5 -40.5t14.5 -37t26.5 -27t40.5 -10.5zM548 -6q-38 0 -66.5 14t-48 37t-29 54t-9.5 84t41 101t111 48t111 -48t41 -101t-9.5 -84t-29 -54t-47 -37t-65.5 -14z
M194 434q24 0 40.5 10.5t26.5 27t14.5 37t4.5 40.5t-4.5 40.5t-14.5 37t-26.5 27t-40.5 10.5t-40.5 -10.5t-26.5 -27t-14.5 -37t-4.5 -40.5t4.5 -40.5t14.5 -37t26.5 -27t40.5 -10.5z" />
    <glyph glyph-name="ampersand" unicode="&#x26;" horiz-adv-x="667" 
d="M160 114q36 -38 92 -38q57 0 94.5 20t79.5 71l-182 210q-68 -39 -94 -77t-26 -93t36 -93zM364 571q0 42 -25.5 59.5t-56.5 17.5t-54.5 -18t-23.5 -48t20 -55.5t46 -54.5q94 57 94 99zM631 30q0 -36 -39 -36q-18 0 -31 16l-86 99q-91 -115 -220 -115q-91 0 -155 56.5
t-64 162.5t61 152.5t98 68.5q-79 82 -79 130q0 85 49 119.5t103 34.5q85 0 131.5 -35.5t46.5 -80.5q0 -72 -33.5 -110.5t-94.5 -74.5l159 -188q22 29 36 52.5t32.5 51.5t36.5 28q37 0 37 -30q0 -48 -93 -160l87 -103q18 -22 18 -38z" />
    <glyph glyph-name="quotesingle" unicode="'" 
d="M102 496q-41 0 -41 43v136q0 43 41 43t41 -43v-136q0 -43 -41 -43z" />
    <glyph glyph-name="parenleft" unicode="(" horiz-adv-x="241" 
d="M65 376.5q0 161.5 58 314.5q18 45 44 45q18 0 26.5 -9t8.5 -20t-5 -23t-17 -52q-34 -106 -33.5 -322.5t28 -293t27.5 -87.5t-8 -20t-26 -9q-54 0 -78.5 157.5t-24.5 319z" />
    <glyph glyph-name="parenright" unicode=")" horiz-adv-x="241" 
d="M176 259.5q0 -161.5 -58 -314.5q-18 -45 -44 -45q-18 0 -26.5 9t-8.5 20t4.5 23t16.5 52q34 106 34 322.5t-27.5 293t-27.5 87.5t8.5 20t26.5 9q54 0 78 -157.5t24 -319z" />
    <glyph glyph-name="asterisk" unicode="*" horiz-adv-x="390" 
d="M204.5 718q26.5 0 26.5 -38q0 -17 -5.5 -45.5t-5.5 -55.5q20 15 50 40t46 25t26 -10t10 -28t-23 -28l-89 -37l89 -37q23 -10 23 -28t-10 -28t-22 -10t-23 6t-23 16t-25.5 21.5t-28.5 21.5l11 -104q0 -14 -9.5 -24.5t-36 -10.5t-26.5 38q0 17 5.5 45.5t5.5 55.5
q-15 -10 -28.5 -21.5t-32.5 -27.5t-35 -16t-26 10t-10 28t23 28l89 37l-89 37q-23 10 -23 28t10 28t22 10q20 0 50 -25t50 -40l-11 104q0 14 9.5 24.5t36 10.5z" />
    <glyph glyph-name="plus" unicode="+" horiz-adv-x="600" 
d="M47 253q0 41 43 41h169v169q0 43 41 43t41 -43v-169h169q43 0 43 -41t-43 -41h-169v-169q0 -43 -41 -43t-41 43v169h-169q-43 0 -43 41z" />
    <glyph glyph-name="comma" unicode="," horiz-adv-x="250" 
d="M131 96q45 0 45 -38q0 -15 -11 -37l-56 -110q-21 -37 -42 -37t-33 10.5t-12 26.5t11 38l56 110q21 37 42 37z" />
    <glyph glyph-name="hyphen" unicode="-" horiz-adv-x="352" 
d="M279 230h-206q-16 0 -27 11t-11 27t11 27t27 11h206q16 0 27 -11t11 -27t-11 -27t-27 -11z" />
    <glyph glyph-name="period" unicode="." horiz-adv-x="250" 
d="M74 45q0 21 15 36t36 15t36 -15t15 -36t-15 -36t-36 -15t-36 15t-15 36z" />
    <glyph glyph-name="slash" unicode="/" horiz-adv-x="407" 
d="M54 -6q-34 0 -34 37q0 13 14 44l273 613q12 30 46 30t34 -37q0 -13 -14 -44l-273 -613q-12 -30 -46 -30z" />
    <glyph glyph-name="zero" unicode="0" horiz-adv-x="536" 
d="M127 356q0 -75 11 -129t30 -89t45 -51.5t55 -16.5t55 16.5t45 51.5t30 89t11 129t-11 129t-30 89t-45 51.5t-55 16.5t-55 -16.5t-45 -51.5t-30 -89t-11 -129zM33 356q0 86 18.5 153t50.5 113.5t74.5 71t91.5 24.5t91.5 -24.5t74.5 -71t50.5 -113.5t18.5 -153t-18.5 -153
t-50.5 -113.5t-74.5 -71t-91.5 -24.5t-91.5 24.5t-74.5 71t-50.5 113.5t-18.5 153z" />
    <glyph glyph-name="one" unicode="1" horiz-adv-x="352" 
d="M208 -6q-44 0 -44 47v595h-92q-16 0 -27 11t-11 27t11 27t27 11h153q13 0 20 -3.5t7 -20.5v-647q0 -47 -44 -47z" />
    <glyph glyph-name="two" unicode="2" horiz-adv-x="536" 
d="M452 76q16 0 27 -11t11 -27t-11 -27t-27 -11h-345q-28 0 -38 12.5t-10 24.5t19 39l246 329q52 66 52 120q0 55 -32.5 86t-72.5 31q-69 0 -103.5 -46t-34.5 -115q0 -23 -12.5 -31.5t-26.5 -8.5q-43 0 -43 49q0 97 60 162.5t157 65.5q96 0 149 -53t53 -119t-16 -97.5
t-33 -54.5l-239 -318h270z" />
    <glyph glyph-name="three" unicode="3" horiz-adv-x="536" 
d="M104 497q-38 1 -38 51q0 66 51 118t136 52q84 0 134.5 -54t50.5 -141q0 -88 -84 -140q60 -18 91 -65t31 -103q0 -105 -65.5 -163t-162.5 -58t-152 55.5t-55 106.5t39 51q32 0 46 -42q33 -95 121 -95q58 0 96.5 38.5t38.5 93.5q0 133 -124 133q-54 0 -54 38q0 29 50 39
q96 20 96 114q0 51 -27.5 83.5t-63.5 32.5q-59 0 -82.5 -28.5t-26.5 -59.5q-4 -44 -16.5 -50.5t-29.5 -6.5z" />
    <glyph glyph-name="four" unicode="4" horiz-adv-x="536" 
d="M334 259v365h-2l-210 -365h212zM378 -6q-44 0 -44 47v142h-284q-38 0 -38 31q0 16 22 51l252 413q24 40 69 40q67 0 67 -73v-386h45q16 0 27 -11t11 -27t-11 -27t-27 -11h-45v-142q0 -47 -44 -47z" />
    <glyph glyph-name="five" unicode="5" horiz-adv-x="536" 
d="M381 214q0 167 -123 167q-40 0 -75.5 -13.5t-45.5 -13.5q-30 0 -30 27q0 8 2.5 25t4.5 34l37 249q3 23 33 23h247q16 0 27 -11t11 -27t-11 -27t-27 -11h-203l-29 -193q40 20 88 20q87 0 137.5 -64.5t50.5 -136.5q0 -130 -61.5 -199t-156.5 -69t-154 40.5t-59 77.5
q0 38 32 38q14 0 27.5 -11.5t48 -37t80.5 -25.5q75 0 112 45t37 93z" />
    <glyph glyph-name="six" unicode="6" horiz-adv-x="536" 
d="M390 230q0 154 -125 154q-92 0 -108.5 -61.5t-16.5 -92.5t7.5 -59t22.5 -49t38.5 -33.5t71 -12.5t79 44t31.5 110zM296 460q92 0 140 -69t48 -165q0 -97 -62 -164.5t-155 -67.5t-154 69t-61 162q0 155 73 270.5t175 202.5q25 20 39 20q13 0 25.5 -10t12.5 -26t-8 -25.5
t-28 -27.5q-89 -80 -152 -197h2q53 28 105 28z" />
    <glyph glyph-name="seven" unicode="7" horiz-adv-x="500" 
d="M427 712q45 0 45 -28q0 -13 -17 -53l-266 -605q-14 -32 -53 -32q-9 0 -21 9t-12 23t14 49l249 559v2h-300q-16 0 -27 11t-11 27t11 27t27 11h361z" />
    <glyph glyph-name="eight" unicode="8" horiz-adv-x="536" 
d="M144 212q0 -30 10 -57.5t27 -46.5t39.5 -28.5t61.5 -9.5t74.5 39.5t35.5 105.5q0 93 -46.5 117.5t-77.5 24.5t-54 -12t-38.5 -31.5t-23.5 -45.5t-8 -56zM168 538q0 -46 26 -75.5t74 -29.5t74 29.5t26 75.5t-26 75t-74 29t-74 -29t-26 -75zM179 397q-93 58 -93 146
t54 131.5t128 43.5t128 -43.5t54 -109.5q0 -67 -22.5 -102.5t-70.5 -65.5q92 -21 110.5 -84t18.5 -100t-14.5 -78t-42.5 -72t-68.5 -50t-116 -19t-135 66t-59.5 163t49 132t80 42z" />
    <glyph glyph-name="nine" unicode="9" horiz-adv-x="536" 
d="M146 482q0 -154 125 -154q92 0 108.5 61.5t16.5 92.5t-7.5 59t-22.5 49t-38.5 33.5t-71 12.5t-79 -44t-31.5 -110zM240 252q-93 0 -140.5 69t-47.5 165q0 97 62 164.5t155.5 67.5t154 -69t60.5 -162q0 -155 -74.5 -273t-173.5 -200q-39 -31 -58 -15.5t-19 31.5t8 25.5
t28 27.5q89 80 152 197h-2q-54 -28 -105 -28z" />
    <glyph glyph-name="colon" unicode=":" horiz-adv-x="250" 
d="M74 381q0 21 15 36t36 15t36 -15t15 -36t-15 -36t-36 -15t-36 15t-15 36zM74 45q0 21 15 36t36 15t36 -15t15 -36t-15 -36t-36 -15t-36 15t-15 36z" />
    <glyph glyph-name="semicolon" unicode=";" horiz-adv-x="250" 
d="M74 381q0 21 15 36t36 15t36 -15t15 -36t-15 -36t-36 -15t-36 15t-15 36zM131 96q45 0 45 -38q0 -15 -11 -37l-56 -110q-21 -37 -42 -37t-33 10.5t-12 26.5t11 38l56 110q21 37 42 37z" />
    <glyph glyph-name="less" unicode="&#x3c;" horiz-adv-x="600" 
d="M544 4.5q-10 -10.5 -23 -10.5t-49 18l-390 195q-36 18 -36 39.5t8 32t28 20.5l390 195q36 18 49 18t23 -10.5t10 -29t-32 -35.5l-372 -184l372 -184q32 -17 32 -35.5t-10 -29z" />
    <glyph glyph-name="equal" unicode="=" horiz-adv-x="600" 
d="M553 149q0 -41 -43 -41h-420q-43 0 -43 41t43 41h420q43 0 43 -41zM553 357q0 -41 -43 -41h-420q-43 0 -43 41t43 41h420q43 0 43 -41z" />
    <glyph glyph-name="greater" unicode="&#x3e;" horiz-adv-x="600" 
d="M56 501.5q10 10.5 23 10.5t49 -18l390 -195q36 -18 36 -39.5t-8 -32t-28 -20.5l-390 -195q-36 -18 -49 -18t-23 10.5t-10 29t32 35.5l372 184l-372 184q-32 17 -32 35.5t10 29z" />
    <glyph glyph-name="question" unicode="?" horiz-adv-x="444" 
d="M163 45q0 21 15 36t36 15t36 -15t15 -36t-15 -36t-36 -15t-36 15t-15 36zM214 191q-44 0 -44 47v113q0 36 11 47t50 18q62 12 81.5 43t19.5 75q0 43 -32 72.5t-78 29.5t-75.5 -17t-41.5 -51t-20.5 -40.5t-24.5 -6.5t-30 12.5t-12 39.5q3 57 62.5 101t118.5 44
q105 0 166 -52.5t61 -132.5t-46.5 -129.5t-121.5 -65.5v-100q0 -47 -44 -47z" />
    <glyph glyph-name="at" unicode="@" horiz-adv-x="800" 
d="M582 552q24 0 24 -22q0 -10 -8 -36l-62 -214q-8 -29 -8 -41q0 -29 26 -29q50 0 92 60.5t42 128.5q0 122 -80.5 187.5t-201.5 65.5q-120 0 -207 -85.5t-87 -213.5q0 -127 89 -210t206 -83q116 0 167.5 38t72 55t43.5 17t23 -22q0 -44 -137.5 -119.5t-294 -12.5t-201 163.5
t-44.5 214t111 219t262 105.5t253 -84t102 -215t-82.5 -204t-165.5 -73q-60 0 -70 57h-2q-50 -57 -114 -57t-108 46t-44 103q0 107 64 187t153 80t126 -75l13 40q5 17 14.5 23t33.5 6zM350 218q65 0 99.5 67.5t34.5 124.5q0 72 -75 72q-67 0 -105 -55t-38 -107t24 -77
t60 -25z" />
    <glyph glyph-name="A" unicode="A" horiz-adv-x="612" 
d="M444 231l-137 385h-2l-137 -385h276zM10 31q0 9 5 23t7 21l221 589q19 54 63 54t63 -54l221 -589q2 -7 7 -21t5 -27t-12.5 -23t-36.5 -10t-36 33l-46 128h-330l-46 -128q-12 -33 -36 -33q-49 0 -49 37z" />
    <glyph glyph-name="B" unicode="B" horiz-adv-x="537" 
d="M105 0q-47 0 -47 48v616q0 48 47 48h155q90 0 141 -52.5t51 -114.5t-27.5 -103.5t-71.5 -55.5v-2q63 -6 108.5 -55.5t45.5 -106.5q0 -101 -62.5 -161.5t-170.5 -60.5h-169zM146 339v-263h124q65 0 107 36t42 94t-39 95.5t-106 37.5h-128zM146 636v-225h100
q57 0 87.5 33.5t30.5 81.5t-28 79t-87 31h-103z" />
    <glyph glyph-name="C" unicode="C" horiz-adv-x="593" 
d="M534 134q35 0 35 -38t-67.5 -70t-151.5 -32t-142.5 30.5t-97.5 81t-59 116t-20 174.5t83.5 215.5t233.5 106.5q87 0 146.5 -36.5t59.5 -60.5q0 -49 -36 -49q-15 0 -56.5 35t-106.5 35q-66 0 -108.5 -25.5t-69.5 -66.5t-39.5 -92t-12.5 -133t56 -168.5t162 -86.5
q62 0 103 22t57.5 32t30.5 10z" />
    <glyph glyph-name="D" unicode="D" horiz-adv-x="630" 
d="M151 636v-560h126q116 0 172 82t56 202q0 190 -85.5 233t-148.5 43h-120zM110 0q-47 0 -47 48v616q0 48 47 48h173q152 0 234 -101t82 -257t-81.5 -255t-222.5 -99h-185z" />
    <glyph glyph-name="E" unicode="E" horiz-adv-x="444" 
d="M382 356q0 -41 -43 -41h-193v-233h212q43 0 43 -41t-43 -41h-253q-47 0 -47 48v616q0 48 47 48h253q43 0 43 -41t-43 -41h-212v-233h193q43 0 43 -41z" />
    <glyph glyph-name="F" unicode="F" horiz-adv-x="407" 
d="M374 356q0 -41 -43 -41h-185v-274q0 -47 -44 -47t-44 47v623q0 48 47 48h250q43 0 43 -41t-43 -41h-209v-233h185q43 0 43 -41z" />
    <glyph glyph-name="G" unicode="G" horiz-adv-x="667" 
d="M392 367q0 41 43 41h148q34 0 49 -15t15 -68q0 -138 -69 -234.5t-226 -96.5q-156 0 -238.5 107t-82.5 256.5t83.5 255t241.5 105.5q101 0 172.5 -40.5t71.5 -73.5q0 -17 -11 -29.5t-29 -12.5t-35 12.5t-58.5 40t-108.5 27.5q-68 0 -110.5 -25.5t-70 -66.5t-40 -92
t-12.5 -134.5t57 -168.5t163 -85q105 0 159.5 66t54.5 148v42h-124q-43 0 -43 41z" />
    <glyph glyph-name="H" unicode="H" horiz-adv-x="667" 
d="M565 -6q-44 0 -44 53v272h-375v-272q0 -53 -44 -53t-44 53v618q0 53 44 53t44 -53v-270h375v270q0 53 44 53t44 -53v-618q0 -53 -44 -53z" />
    <glyph glyph-name="I" unicode="I" 
d="M102 718q44 0 44 -47v-630q0 -47 -44 -47t-44 47v630q0 47 44 47z" />
    <glyph glyph-name="J" unicode="J" horiz-adv-x="370" 
d="M146 70q78 0 78 102v499q0 47 44 47t44 -47v-490q0 -187 -173 -187q-81 0 -113.5 30.5t-32.5 49.5q0 37 35 37q15 0 24.5 -6.5t31 -20.5t62.5 -14z" />
    <glyph glyph-name="K" unicode="K" horiz-adv-x="574" 
d="M102 718q44 0 44 -47v-260l305 279q31 28 48 28t27.5 -10.5t10.5 -31t-18 -36.5l-292 -263l319 -308q18 -16 18 -34t-12.5 -29.5t-32.5 -11.5t-41 19l-332 326v-298q0 -47 -44 -47t-44 47v630q0 47 44 47z" />
    <glyph glyph-name="L" unicode="L" horiz-adv-x="389" 
d="M102 718q44 0 44 -47v-589h188q43 0 43 -41t-43 -41h-229q-47 0 -47 48v623q0 47 44 47z" />
    <glyph glyph-name="M" unicode="M" horiz-adv-x="834" 
d="M805 39q0 -45 -42 -45t-46 38l-83 572h-2l-170 -574q-11 -36 -45 -36t-45 36l-170 574h-2l-83 -572q-5 -38 -46 -38q-42 0 -42 45q0 8 1.5 17.5t3.5 22.5l97 572q12 67 69 67q49 0 64 -46l152 -521h2l152 521q15 46 64 46q57 0 69 -67l97 -572q2 -13 3.5 -22.5t1.5 -17.5
z" />
    <glyph glyph-name="N" unicode="N" horiz-adv-x="668" 
d="M566 718q44 0 44 -47v-625q0 -52 -40 -52q-20 0 -32 10t-30 36l-360 517h-2v-516q0 -47 -44 -47t-44 47v625q0 52 40 52q20 0 32 -10t30 -36l360 -517h2v516q0 47 44 47z" />
    <glyph glyph-name="O" unicode="O" horiz-adv-x="686" 
d="M31 356q0 69 20 134.5t59.5 116t98 81t134.5 30.5t134.5 -30.5t98 -81t59.5 -116t20 -134.5t-20 -134.5t-59.5 -116t-98 -81t-134.5 -30.5t-134.5 30.5t-98 81t-59.5 116t-20 134.5zM125 356q0 -51 11.5 -102t37.5 -92t67.5 -66.5t101.5 -25.5t101.5 25.5t67.5 66.5
t37.5 92t11.5 102t-11.5 102t-37.5 92t-67.5 66.5t-101.5 25.5t-101.5 -25.5t-67.5 -66.5t-37.5 -92t-11.5 -102z" />
    <glyph glyph-name="P" unicode="P" horiz-adv-x="519" 
d="M146 636v-294h130q63 0 104.5 41.5t41.5 104.5q0 96 -54.5 122t-95.5 26h-126zM58 664q0 48 47 48h174q105 0 168 -64.5t63 -158.5t-66 -158.5t-162 -64.5h-136v-225q0 -47 -44 -47t-44 47v623z" />
    <glyph glyph-name="Q" unicode="Q" horiz-adv-x="685" 
d="M31 356q0 149 83.5 255.5t228.5 106.5t228.5 -106.5t83.5 -245.5t-62 -235l74 -73q17 -17 17 -33t-10 -27.5t-28 -11.5t-34 16l-70 69q-81 -77 -213 -77t-215 106.5t-83 255.5zM561 334q0 73 -11.5 124t-37.5 92t-67.5 66.5t-101.5 25.5t-101.5 -25.5t-67.5 -66.5
t-37.5 -92t-11.5 -135t53.5 -168.5t152.5 -84.5t154 57l-59 58q-18 18 -18 34t11 27.5t28 11.5t33 -16l49 -48q32 67 32 140z" />
    <glyph glyph-name="R" unicode="R" horiz-adv-x="519" 
d="M146 636v-253h120q69 0 100.5 31t31.5 91t-37.5 95.5t-96.5 35.5h-118zM58 664q0 48 47 48h163q89 0 153.5 -54.5t64.5 -137.5q0 -149 -77 -174.5t-117 -27.5l-38 -1l227 -249q17 -18 17 -36q0 -38 -40 -38q-20 0 -40 20l-272 298v-271q0 -47 -44 -47t-44 47v623z" />
    <glyph glyph-name="S" unicode="S" horiz-adv-x="481" 
d="M21 80q0 45 37 45q11 0 25 -8.5t33.5 -19t44.5 -19t75 -8.5t90 42t40 94q0 51 -25 75t-62.5 40t-81.5 30t-106.5 50t-62.5 134q0 68 59 125.5t160 57.5q102 0 134 -33t32 -49t-10.5 -28t-26.5 -12t-27 7t-37 23t-76 16t-82 -28t-32 -70t25 -64.5t62.5 -38.5t144 -50
t106.5 -172q0 -93 -64.5 -159t-181.5 -66t-155 33.5t-38 52.5z" />
    <glyph glyph-name="T" unicode="T" horiz-adv-x="444" 
d="M222 -6q-44 0 -44 47v589h-133q-43 0 -43 41t43 41h354q43 0 43 -41t-43 -41h-133v-589q0 -47 -44 -47z" />
    <glyph glyph-name="U" unicode="U" horiz-adv-x="668" 
d="M566 718q44 0 44 -47v-389q0 -162 -81.5 -225t-230 -63t-194.5 99t-46 189v389q0 47 44 47t44 -47v-423q0 -84 52 -131t136 -47t136 47t52 131v423q0 47 44 47z" />
    <glyph glyph-name="V" unicode="V" horiz-adv-x="556" 
d="M509 718q22 0 32.5 -11t10.5 -26t-6 -33l-217 -606q-8 -22 -18 -35t-33 -13t-33 13t-18 35l-217 606q-6 18 -6 33t10.5 26t32.5 11t32 -17t18 -40l180 -519h2l180 519q8 23 18 40t32 17z" />
    <glyph glyph-name="W" unicode="W" horiz-adv-x="834" 
d="M25 678q1 40 41 40t47 -41l93 -569h2l164 575q10 35 36 35t37 -7.5t17 -27.5l164 -575h2l93 569q7 41 47 41t41 -40q0 -18 -5 -45l-108 -581q-10 -58 -63 -58q-26 0 -42 10.5t-27 47.5l-146 522h-2l-146 -522q-11 -37 -27 -47.5t-37 -10.5q-36 0 -50 15.5t-18 42.5
l-108 581q-5 27 -5 45z" />
    <glyph glyph-name="X" unicode="X" horiz-adv-x="594" 
d="M33.5 -5.5q-24.5 20.5 -24.5 36.5t14 36l223 315l-186 263q-14 21 -14 37t11.5 26t31.5 10t41 -28l167 -244l167 244q20 28 41 28q43 0 43 -37q0 -16 -14 -36l-186 -263l223 -315q14 -20 14 -36t-12.5 -26.5t-31.5 -10.5t-40 28l-204 291l-204 -291q-35 -48 -59.5 -27.5z
" />
    <glyph glyph-name="Y" unicode="Y" horiz-adv-x="500" 
d="M250 -6q-44 0 -44 47v293l-191 311q-14 22 -14 37q0 36 40 36q28 0 44 -28l165 -269l165 269q16 28 44 28q40 0 40 -36q0 -15 -14 -37l-191 -311v-293q0 -47 -44 -47z" />
    <glyph glyph-name="Z" unicode="Z" horiz-adv-x="556" 
d="M76 0q-52 0 -52 40q0 22 17 47l366 549h-323q-43 0 -43 38t43 38h389q22 0 34 -9.5t12 -27.5t-22 -50l-367 -549h359q43 0 43 -38t-43 -38h-413z" />
    <glyph glyph-name="bracketleft" unicode="[" horiz-adv-x="241" 
d="M76 670q0 48 47 48h69q16 0 27 -11t11 -27t-11 -27t-27 -11h-34v-648h34q16 0 27 -11t11 -27t-11 -27t-27 -11h-69q-47 0 -47 48v704z" />
    <glyph glyph-name="backslash" unicode="\" horiz-adv-x="407" 
d="M387 31q0 -37 -33.5 -37t-46.5 30l-273 613q-14 31 -14 44q0 37 34 37t46 -30l273 -613q14 -31 14 -44z" />
    <glyph glyph-name="bracketright" unicode="]" horiz-adv-x="241" 
d="M165 -34q0 -48 -47 -48h-69q-16 0 -27 11t-11 27t11 27t27 11h34v648h-34q-16 0 -27 11t-11 27t11 27t27 11h69q47 0 47 -48v-704z" />
    <glyph glyph-name="asciicircum" unicode="^" horiz-adv-x="600" 
d="M94 289q-16 0 -27 9.5t-11 21.5t6 23.5t11 21.5l175 312q24 41 48 41t35 -12t21 -29l175 -312q5 -10 11 -21.5t6 -23.5t-11 -21.5t-27 -9.5t-25.5 12t-23.5 38l-157 291l-157 -291q-14 -26 -23.5 -38t-25.5 -12z" />
    <glyph glyph-name="underscore" unicode="_" horiz-adv-x="500" 
d="M529 -100q0 -25 -29 -25h-500q-29 0 -29 25t29 25h500q29 0 29 -25z" />
    <glyph glyph-name="grave" unicode="`" 
d="M-9 701q0 10 9 25.5t24 15.5t39 -9l115 -47q35 -13 35 -37q0 -11 -9 -26.5t-24 -15.5t-39 9l-115 47q-35 13 -35 38z" />
    <glyph glyph-name="a" unicode="a" horiz-adv-x="556" 
d="M269 70q74 0 110 58.5t36 137.5t-36 137.5t-110 58.5t-110 -58.5t-36 -137.5t36 -137.5t110 -58.5zM281 538q68 0 133 -71h2v28q0 23 13 33t27 10t28 -10t14 -33v-458q0 -23 -14 -33t-28 -10t-27 10t-13 33v37h-2q-57 -80 -155 -80t-161 80t-63 192t63 192t183 80z" />
    <glyph glyph-name="b" unicode="b" horiz-adv-x="556" 
d="M106 -6q-44 0 -44 47v684q0 47 44 47t44 -47v-259h2q54 72 150 72t157.5 -80t61.5 -192t-62 -192t-165 -80q-104 0 -142 73h-2v-26q0 -47 -44 -47zM287 70q74 0 110 58.5t36 137.5t-36 137.5t-110 58.5t-110 -58.5t-36 -137.5t36 -137.5t110 -58.5z" />
    <glyph glyph-name="c" unicode="c" horiz-adv-x="444" 
d="M381 100q34 0 34 -37q0 -25 -35.5 -47t-100.5 -22t-110 22.5t-75 60.5t-44.5 87t-14.5 132.5t62.5 162.5t177.5 79q68 0 105.5 -20t37.5 -40q0 -44 -36 -44q-13 0 -22.5 4.5t-31.5 14t-58 9.5t-65 -18t-47 -46.5t-26.5 -63t-8.5 -89.5t38 -115t114 -60q37 0 65.5 15
t40.5 15z" />
    <glyph glyph-name="d" unicode="d" horiz-adv-x="556" 
d="M450 -6q-44 0 -44 47v26h-2q-38 -73 -142 -73t-165.5 80t-61.5 192t62 192t157 80q96 0 150 -72h2v259q0 47 44 47t44 -47v-684q0 -47 -44 -47zM269 462q-74 0 -110 -58.5t-36 -137.5t36 -137.5t110 -58.5t110 58.5t36 137.5t-36 137.5t-110 58.5z" />
    <glyph glyph-name="e" unicode="e" horiz-adv-x="520" 
d="M406 298q0 64 -36.5 114t-107.5 52t-108.5 -47t-39.5 -119h292zM445 232h-331q0 -110 60 -136t100 -26t69.5 11.5t49 25t33 24.5t25.5 11t22 -10t10 -28q0 -35 -69.5 -72.5t-138.5 -37.5q-126 0 -187.5 78t-61.5 192t65 194t172 80t169 -78.5t62 -180.5q0 -23 -10 -35
t-39 -12z" />
    <glyph glyph-name="f" unicode="f" horiz-adv-x="259" 
d="M210 696q-36 0 -36 -35v-129h55q44 0 44 -38t-44 -38h-55v-415q0 -47 -44 -47t-44 47v415h-36q-44 0 -44 38t44 38h36v125q0 58 34.5 86.5t82.5 28.5h27q17 0 33.5 -10t16.5 -28q0 -38 -48 -38h-22z" />
    <glyph glyph-name="g" unicode="g" horiz-adv-x="556" 
d="M269 70q74 0 110 58.5t36 137.5t-36 137.5t-110 58.5t-110 -58.5t-36 -137.5t36 -137.5t110 -58.5zM406 495q0 43 47 43q13 0 27 -10t14 -33v-457q0 -117 -65 -185.5t-175 -68.5q-67 0 -135.5 32t-68.5 69t37 37q15 0 30.5 -9.5t51.5 -31t85 -21.5q84 0 118 48.5
t34 115.5v46h-2q-43 -76 -143 -76t-163 80t-63 192t63.5 192t159.5 80t146 -67h2v24z" />
    <glyph glyph-name="h" unicode="h" horiz-adv-x="538" 
d="M436 -6q-44 0 -44 47v290q0 97 -50.5 114t-86 17t-72.5 -32.5t-37 -98.5v-290q0 -47 -44 -47t-44 47v684q0 47 44 47t44 -47v-255l2 -2q53 70 147 70q119 0 152 -73t33 -129v-295q0 -47 -44 -47z" />
    <glyph glyph-name="i" unicode="i" 
d="M48 664q0 23 15.5 38.5t38.5 15.5t38.5 -15.5t15.5 -38.5t-15.5 -38.5t-38.5 -15.5t-38.5 15.5t-15.5 38.5zM102 538q44 0 44 -47v-450q0 -47 -44 -47t-44 47v450q0 47 44 47z" />
    <glyph glyph-name="j" unicode="j" 
d="M48 664q0 23 15.5 38.5t38.5 15.5t38.5 -15.5t15.5 -38.5t-15.5 -38.5t-38.5 -15.5t-38.5 15.5t-15.5 38.5zM102 538q44 0 44 -47v-660q0 -47 -44 -47t-44 47v660q0 47 44 47z" />
    <glyph glyph-name="k" unicode="k" horiz-adv-x="463" 
d="M102 -6q-44 0 -44 47v684q0 47 44 47t44 -47v-375l192 161q32 27 50 27q37 0 37 -39q0 -21 -22 -38l-200 -158l232 -229q21 -20 21 -40t-11.5 -30t-30.5 -10t-46 27l-222 232v-212q0 -47 -44 -47z" />
    <glyph glyph-name="l" unicode="l" 
d="M102 772q44 0 44 -47v-684q0 -47 -44 -47t-44 47v684q0 47 44 47z" />
    <glyph glyph-name="m" unicode="m" horiz-adv-x="834" 
d="M417 -6q-44 0 -44 47v298q0 57 -30 90t-84 33t-83.5 -33t-29.5 -90v-298q0 -47 -44 -47t-44 47v450q0 47 44 47t44 -47v-16l2 -2q35 44 69.5 54.5t64.5 10.5q93 0 146 -90q62 90 172 90t143 -73t33 -129v-295q0 -47 -44 -47t-44 47v298q0 57 -30 90t-84 33t-83.5 -33
t-29.5 -90v-298q0 -47 -44 -47z" />
    <glyph glyph-name="n" unicode="n" horiz-adv-x="538" 
d="M102 -6q-44 0 -44 47v450q0 47 44 47t44 -47v-21l2 -2q53 70 147 70q119 0 152 -73t33 -129v-295q0 -47 -44 -47t-44 47v290q0 97 -50.5 114t-86 17t-72.5 -32.5t-37 -98.5v-290q0 -47 -44 -47z" />
    <glyph glyph-name="o" unicode="o" horiz-adv-x="538" 
d="M269 70q74 0 110 58.5t36 137.5t-36 137.5t-110 58.5t-110 -58.5t-36 -137.5t36 -137.5t110 -58.5zM35 266q0 53 15.5 102t45.5 87t73.5 60.5t99.5 22.5t99.5 -22.5t73.5 -60.5t45.5 -87t15.5 -102t-15.5 -102t-45.5 -87t-73.5 -60.5t-99.5 -22.5t-99.5 22.5t-73.5 60.5
t-45.5 87t-15.5 102z" />
    <glyph glyph-name="p" unicode="p" horiz-adv-x="556" 
d="M106 -216q-44 0 -44 47v660q0 47 44 47t44 -47v-26h2q38 73 142 73t165.5 -80t61.5 -192t-62 -192t-157 -80q-96 0 -150 72h-2v-235q0 -47 -44 -47zM287 70q74 0 110 58.5t36 137.5t-36 137.5t-110 58.5t-110 -58.5t-36 -137.5t36 -137.5t110 -58.5z" />
    <glyph glyph-name="q" unicode="q" horiz-adv-x="556" 
d="M404 66q-54 -72 -150 -72t-157.5 80t-61.5 192t62 192t165 80q104 0 142 -73h2v26q0 47 44 47t44 -47v-660q0 -47 -44 -47t-44 47v235h-2zM269 462q-74 0 -110 -58.5t-36 -137.5t36 -137.5t110 -58.5t110 58.5t36 137.5t-36 137.5t-110 58.5z" />
    <glyph glyph-name="r" unicode="r" horiz-adv-x="315" 
d="M148 446q49 92 122 92q21 0 34 -13t13 -32q0 -38 -55 -48q-75 -12 -95.5 -62t-20.5 -89v-253q0 -47 -44 -47t-44 47v450q0 47 44 47t44 -47v-45h2z" />
    <glyph glyph-name="s" unicode="s" horiz-adv-x="444" 
d="M100 497.5q54 40.5 142 40.5q87 0 124.5 -36t37.5 -54q0 -40 -40 -40q-14 0 -25.5 8.5t-37.5 27t-69 18.5q-98 0 -98 -67q0 -37 52.5 -59.5t142 -55t89.5 -122.5q0 -78 -56.5 -121t-118.5 -43q-99 0 -159 32.5t-60 68.5q0 18 11 29t25 11t28.5 -10t48.5 -32.5t86 -22.5
t79.5 23t27.5 49t-21 44t-52.5 33t-68.5 29.5t-89.5 45.5t-52.5 97t54 106.5z" />
    <glyph glyph-name="t" unicode="t" horiz-adv-x="260" 
d="M130 -6q-44 0 -44 47v415h-36q-44 0 -44 38t44 38h36v115q0 47 44 47t44 -47v-115h36q44 0 44 -38t-44 -38h-36v-415q0 -47 -44 -47z" />
    <glyph glyph-name="u" unicode="u" horiz-adv-x="538" 
d="M436 538q44 0 44 -47v-285q0 -108 -60 -160t-177 -52t-151 77t-34 135v285q0 47 44 47t44 -47v-282q0 -139 123 -139t123 139v282q0 47 44 47z" />
    <glyph glyph-name="v" unicode="v" horiz-adv-x="426" 
d="M5 500q0 17 12 27.5t37 10.5t37 -34l121 -368h2l121 368q11 34 37 34q49 0 49 -41q0 -14 -9 -36l-153 -429q-7 -20 -16 -29t-30 -9t-30 9t-16 29l-153 429q-9 22 -9 39z" />
    <glyph glyph-name="w" unicode="w" horiz-adv-x="742" 
d="M2 500q0 12 10 25t28 13t31 -8t22 -37l113 -363h2l111 350q9 29 18.5 43.5t33.5 14.5t33.5 -14.5t18.5 -43.5l111 -350h2l113 363q14 45 49 45q23 0 32.5 -13t9.5 -25t-7 -35l-146 -425q-16 -46 -51 -46t-50 46l-114 359h-2l-114 -359q-14 -46 -50 -46q-35 0 -51 46
l-146 425q-7 23 -7 35z" />
    <glyph glyph-name="x" unicode="x" horiz-adv-x="464" 
d="M28 498q0 16 10.5 28t28.5 12t36 -20l129 -172l129 172q18 20 36 20t28.5 -12t10.5 -28t-15 -35l-138 -181l157 -206q18 -23 18 -41t-11.5 -29.5t-32.5 -11.5t-35 20l-147 204l-147 -204q-14 -20 -35 -20t-32.5 11.5t-11.5 29.5t18 41l157 206l-138 181q-15 19 -15 35z
" />
    <glyph glyph-name="y" unicode="y" horiz-adv-x="444" 
d="M17 502q0 16 12.5 26t36.5 10t35 -33l122 -365h2l120 365q12 33 34 33q48 0 48 -37q0 -14 -12 -49l-222 -635q-12 -33 -35 -33q-48 0 -48 37q0 12 13 49l56 149l-150 433q-12 34 -12 50z" />
    <glyph glyph-name="z" unicode="z" horiz-adv-x="444" 
d="M370 532q43 0 43 -25.5t-18 -50.5l-257 -378l3 -2h239q44 0 44 -38t-44 -38h-317q-43 0 -43 25.5t18 50.5l254 380h-218q-44 0 -44 38t44 38h296z" />
    <glyph glyph-name="braceleft" unicode="{" horiz-adv-x="241" 
d="M178 -82q-102 0 -102 108v122q0 92 -15 109.5t-35 23.5t-30.5 13t-10.5 24t10.5 24.5t30.5 13.5q35 9 42.5 37t7.5 95v122q0 108 102 108h38q40 0 40 -30t-40 -30h-14q-44 0 -44 -48v-158q0 -104 -39 -117.5t-52 -15.5v-2q58 -4 74.5 -48t16.5 -85v-158q0 -48 44 -48h14
q40 0 40 -30t-40 -30h-38z" />
    <glyph glyph-name="bar" unicode="|" horiz-adv-x="222" 
d="M111 -293q-41 0 -41 43v1000q0 43 41 43t41 -43v-1000q0 -43 -41 -43z" />
    <glyph glyph-name="braceright" unicode="}" horiz-adv-x="241" 
d="M63 718q102 0 102 -108v-122q0 -92 14.5 -109.5t34.5 -23.5t31 -13t11 -24t-11 -24.5t-31 -12.5q-34 -8 -41.5 -37t-7.5 -96v-122q0 -108 -102 -108h-38q-40 0 -40 30t40 30h14q44 0 44 48v158q0 103 39 117.5t52 15.5v2q-91 14 -91 133v158q0 48 -44 48h-14
q-40 0 -40 30t40 30h38z" />
    <glyph glyph-name="asciitilde" unicode="~" horiz-adv-x="600" 
d="M99 181q-35 2 -35 37t41.5 71t82.5 36q56 0 124 -34t88 -34t30 11t28.5 34t47.5 22q30 -1 30 -36t-41.5 -71t-82.5 -36q-56 0 -124 34t-88 34t-30 -11t-27.5 -34t-43.5 -23z" />
    <glyph glyph-name="Adieresis" horiz-adv-x="612" 
d="M444 231l-137 385h-2l-137 -385h276zM10 31q0 9 5 23t7 21l221 589q19 54 63 54t63 -54l221 -589q2 -7 7 -21t5 -27t-12 -23t-37 -10q-24 0 -36 33l-46 128h-330l-46 -128q-12 -33 -36 -33q-49 0 -49 37zM345 818q-1 22 15 38t39 16t39 -16t15 -38q1 -22 -15 -38t-39 -16
t-39 16t-15 38zM159 818q-1 22 15 38t39 16t39 -16t15 -38q1 -22 -15 -38t-39 -16t-39 16t-15 38z" />
    <glyph glyph-name="Aring" horiz-adv-x="612" 
d="M444 231l-137 385h-2l-137 -385h276zM10 31q0 9 5 23t7 21l221 589q19 54 63 54t63 -54l221 -589q2 -7 7 -21t5 -27t-12 -23t-37 -10q-24 0 -36 33l-46 128h-330l-46 -128q-12 -33 -36 -33q-49 0 -49 37zM260 828q0 -18 14 -32t32 -14t32 14t14 32t-14 32t-32 14t-32 -14
t-14 -32zM240 894q28 28 56 28q48 0 76 -28t28 -56q0 -48 -28 -76t-56 -28t-46 8t-30 20q-28 28 -28 66t28 66z" />
    <glyph glyph-name="ccedilla" horiz-adv-x="444" 
d="M262 -83q-11 2 -37 2t-26 22q0 7 10 22l24 35q-97 16 -147.5 91t-50.5 183t62.5 187t177.5 79q68 0 105.5 -20t37.5 -40q0 -44 -36 -44q-13 0 -22.5 4.5t-31.5 14t-58 9.5t-65 -18t-47 -46.5t-26.5 -63t-8.5 -89.5t38 -115t114 -60q37 0 65.5 15t40.5 15q34 0 34 -37
q0 -24 -33 -45t-98 -23l-25 -37q12 3 25 3q26 0 45.5 -17.5t19.5 -37.5q0 -86 -111 -86q-73 0 -73 35q0 27 21 27l52 -8q35 0 35 27q0 14 -11 16z" />
    <glyph glyph-name="eacute" horiz-adv-x="520" 
d="M406 298q0 64 -26 99q-47 65 -118 67t-108 -47q-38 -49 -40 -119h292zM445 232h-331q0 -110 91 -150q29 -12 69 -12t70 12q28 12 48 24q20 14 34 25t25 11q12 0 22 -10t10 -28q0 -35 -69 -72q-69 -38 -139 -38q-126 0 -187 78q-62 78 -62 192t65 194t172 80t169 -79
t62 -180q0 -23 -10 -35t-39 -12zM182 607q-15 -1 -24 15t-9 26q0 25 35 38l115 47q23 9 39 9q15 0 24 -16t9 -25q0 -25 -35 -38l-115 -47q-24 -9 -39 -9z" />
    <glyph glyph-name="egrave" horiz-adv-x="520" 
d="M406 298q0 64 -26 99q-47 65 -118 67t-108 -47q-38 -49 -40 -119h292zM445 232h-331q0 -110 91 -150q29 -12 69 -12t70 12q28 12 48 24q20 14 34 25t25 11q12 0 22 -10t10 -28q0 -35 -69 -72q-69 -38 -139 -38q-126 0 -187 78q-62 78 -62 192t65 194t172 80t169 -79
t62 -180q0 -23 -10 -35t-39 -12zM149 701q0 9 9 25t24 16t39 -9l115 -47q35 -13 35 -37q0 -11 -9 -27t-24 -15q-15 0 -39 9l-115 47q-35 13 -35 38z" />
    <glyph glyph-name="ecircumflex" horiz-adv-x="520" 
d="M406 298q0 64 -26 99q-47 65 -118 67t-108 -47q-38 -49 -40 -119h292zM445 232h-331q0 -110 91 -150q29 -12 69 -12t70 12q28 12 48 24q20 14 34 25t25 11q12 0 22 -10t10 -28q0 -35 -69 -72q-69 -38 -139 -38q-126 0 -187 78q-62 78 -62 192t65 194t172 80t169 -79
t62 -180q0 -23 -10 -35t-39 -12zM144 607q-36 0 -36 38q0 25 23 35l129 55l129 -55q23 -10 23 -35q0 -38 -36 -38q-10 0 -22 5l-94 37l-94 -37q-12 -5 -22 -5z" />
    <glyph glyph-name="ugrave" horiz-adv-x="538" 
d="M436 538q44 0 44 -47v-285q0 -108 -60 -160t-151 -52q-143 0 -193 114q-18 40 -18 98v285q0 47 44 47t44 -47v-282q0 -139 123 -139t123 139v282q0 47 44 47zM158 701q0 9 9 25t24 16t39 -9l115 -47q35 -13 35 -37q0 -11 -9 -27t-24 -15q-15 0 -39 9l-115 47
q-35 13 -35 38z" />
    <glyph glyph-name="ucircumflex" horiz-adv-x="538" 
d="M436 538q44 0 44 -47v-285q0 -108 -60 -160t-151 -52q-143 0 -193 114q-18 40 -18 98v285q0 47 44 47t44 -47v-282q0 -139 123 -139t123 139v282q0 47 44 47zM153 607q-36 0 -36 38q0 25 23 35l129 55l129 -55q23 -10 23 -35q0 -38 -36 -38q-10 0 -22 5l-94 37l-94 -37
q-12 -5 -22 -5z" />
    <glyph glyph-name="dagger" unicode="&#xa0;" horiz-adv-x="612" 
d="M27 429q0 41 43 41h195v205q0 43 41 43t41 -43v-205h195q43 0 43 -41t-43 -41h-195v-561q0 -43 -41 -43t-41 43v561h-195q-43 0 -43 41z" />
    <glyph glyph-name="degree" unicode="&#xa1;" horiz-adv-x="400" 
d="M111 575q0 -37 26 -63t63 -26t63 26t26 63t-26 63t-63 26t-63 -26t-26 -63zM57 575q0 30 11 56t30.5 45.5t45.5 30.5t56 11t56 -11t45.5 -30.5t30.5 -45.5t11 -56t-11 -56t-30.5 -45.5t-45.5 -30.5t-56 -11t-56 11t-45.5 30.5t-30.5 45.5t-11 56z" />
    <glyph glyph-name="cent" unicode="&#xa2;" horiz-adv-x="444" 
d="M149 150.5q26 -53.5 78 -71.5v375q-77 -27 -90.5 -93.5t-13.5 -111.5t26 -98.5zM248 -81q-21 0 -21 21v59q-93 17 -142.5 91t-49.5 205t71.5 180.5t120.5 58.5v58q0 21 21 21t21 -21v-54q72 0 110.5 -20t38.5 -40q0 -44 -36 -44q-13 0 -44 14t-69 14v-392q41 0 71 15
t41 15q34 0 34 -37q0 -25 -36.5 -47t-109.5 -22v-54q0 -21 -21 -21z" />
    <glyph glyph-name="sterling" unicode="&#xa3;" horiz-adv-x="593" 
d="M504 498q-26 0 -39 25.5t-33.5 69t-109.5 43.5t-111 -38t-22 -60t5 -40t13 -34.5t17 -32.5t18 -33h129q43 0 43 -41t-43 -41h-109q7 -46 7 -65q0 -40 -23.5 -88t-62.5 -81h337q43 0 43 -41t-43 -41h-400q-53 0 -53 42q0 16 57 73t57 117t-7 84h-101q-43 0 -43 41t43 41
h77q-49 87 -49 135q0 86 65 135.5t151 49.5t157.5 -58t71.5 -110t-42 -52z" />
    <glyph glyph-name="section" unicode="&#xa4;" horiz-adv-x="556" 
d="M116 277q0 -39 32 -67t92 -57l114 -56q86 64 86 122t-29.5 81t-59.5 37l-125 58q-110 -45 -110 -118zM150 441q-34 26 -49.5 50.5t-15.5 62.5q0 76 58 120t148 44q89 0 149.5 -47t60.5 -104q0 -17 -10 -31.5t-28 -14.5t-27.5 9t-16.5 22.5t-15 29t-31 38t-77 22.5
t-88.5 -22t-34.5 -58t26.5 -58t65.5 -41t151 -65t112 -172q0 -77 -42.5 -116.5t-66.5 -52.5q65 -44 65 -116t-63.5 -114.5t-133.5 -42.5q-114 1 -176.5 50.5t-62.5 96.5t44 47q26 0 48 -37t45.5 -59t85.5 -22q61 0 93 24t32 56t-27.5 54t-68 41t-156.5 65t-116 164t122 177z
" />
    <glyph glyph-name="bullet" unicode="&#xa5;" horiz-adv-x="500" 
d="M72 356q0 37 14 69.5t38 56.5t56.5 38t69.5 14t69.5 -14t56.5 -38t38 -56.5t14 -69.5t-14 -69.5t-38 -56.5t-56.5 -38t-69.5 -14t-69.5 14t-56.5 38t-38 56.5t-14 69.5z" />
    <glyph glyph-name="paragraph" unicode="&#xa6;" horiz-adv-x="600" 
d="M283 -216q-41 0 -41 43v517q-148 0 -181 72.5t-33 134t65.5 111.5t189.5 50h191q47 0 47 -48v-837q0 -43 -41 -43t-41 43v819h-115v-819q0 -43 -41 -43z" />
    <glyph glyph-name="germandbls" unicode="&#xa7;" horiz-adv-x="556" 
d="M102 -6q-44 0 -44 43v526q0 149 75 179t119 30q84 0 140.5 -56.5t56.5 -125.5q0 -115 -77 -168q95 -24 114.5 -93t19.5 -107q0 -86 -54.5 -157t-143.5 -71q-58 0 -58 40t33 39q104 0 116.5 60.5t12.5 94.5q0 68 -34.5 106t-73.5 40q-38 2 -48 11t-10 28t10 26.5t28 13.5
q40 13 58.5 38t18.5 81t-29 90t-80 34q-106 0 -106 -150v-509q0 -43 -44 -43z" />
    <glyph glyph-name="registered" unicode="&#xa8;" horiz-adv-x="800" 
d="M400 70q57 0 108 22.5t89 61.5t60.5 91t22.5 111t-22.5 111t-60.5 91t-89 61.5t-108 22.5t-108 -22.5t-89 -61.5t-60.5 -91t-22.5 -111t22.5 -111t60.5 -91t89 -61.5t108 -22.5zM400 -6q-75 0 -141 28.5t-115 77.5t-77.5 115t-28.5 141t28.5 141t77.5 115t115 77.5
t141 28.5t141 -28.5t115 -77.5t77.5 -115t28.5 -141t-28.5 -141t-77.5 -115t-115 -77.5t-141 -28.5zM491 444q0 54 -92 54h-82v-117h76q72 0 85 20.5t13 42.5zM553 163q0 -17 -26 -17t-34.5 5t-16.5 17l-95 153h-64v-143q0 -32 -33 -32t-33 32v359q0 21 23 21h132
q75 0 113 -25.5t38 -88.5q0 -108 -103 -120l89 -136q10 -17 10 -25z" />
    <glyph glyph-name="copyright" unicode="&#xa9;" horiz-adv-x="800" 
d="M400 70q57 0 108 22.5t89 61.5t60.5 91t22.5 111t-22.5 111t-60.5 91t-89 61.5t-108 22.5t-108 -22.5t-89 -61.5t-60.5 -91t-22.5 -111t22.5 -111t60.5 -91t89 -61.5t108 -22.5zM400 -6q-75 0 -141 28.5t-115 77.5t-77.5 115t-28.5 141t28.5 141t77.5 115t115 77.5
t141 28.5t141 -28.5t115 -77.5t77.5 -115t28.5 -141t-28.5 -141t-77.5 -115t-115 -77.5t-141 -28.5zM581 452q0 -28 -33 -28q-20 0 -30.5 14t-32.5 44.5t-85 30.5q-62 0 -95 -44t-33 -93q0 -82 36 -127.5t85 -45.5t70.5 14.5t35 31.5t23.5 31.5t27 14.5q32 0 32 -28
q0 -34 -49 -82t-137 -48t-146.5 64t-58.5 157q0 151 81.5 186t129.5 35q84 0 132 -45t48 -82z" />
    <glyph glyph-name="trademark" unicode="&#xaa;" horiz-adv-x="990" 
d="M474 336v315q0 67 63 67q51 0 67 -39l100 -261l98 261q16 39 67 39q63 0 63 -67v-315q0 -16 -11 -27t-27 -11t-27 11t-11 27v288h-2l-108 -289q-15 -37 -43 -37t-43 37l-108 289h-2v-288q0 -16 -11 -27t-27 -11t-27 11t-11 27zM226 298q-41 0 -41 43v305h-95
q-32 0 -32 33t32 33h272q32 0 32 -33t-32 -33h-95v-305q0 -43 -41 -43z" />
    <glyph glyph-name="acute" unicode="&#xab;" 
d="M24 607q-15 0 -24 15.5t-9 25.5q0 25 35 38l115 47q23 9 39 9q15 0 24 -15.5t9 -25.5q0 -25 -35 -38l-115 -47q-24 -9 -39 -9z" />
    <glyph glyph-name="dieresis" unicode="&#xac;" 
d="M141 658q0 23 15.5 38.5t38.5 15.5t38.5 -15.5t15.5 -38.5t-15.5 -38.5t-38.5 -15.5t-38.5 15.5t-15.5 38.5zM-45 658q0 23 15.5 38.5t38.5 15.5t38.5 -15.5t15.5 -38.5t-15.5 -38.5t-38.5 -15.5t-38.5 15.5t-15.5 38.5z" />
    <glyph glyph-name="AE" unicode="&#xae;" horiz-adv-x="759" 
d="M373 231v379h-2l-191 -379h193zM697 356q0 -41 -43 -41h-193v-233h212q43 0 43 -41t-43 -41h-253q-47 0 -47 48v107h-231l-68 -133q-13 -28 -37 -28q-46 0 -46 32q0 13 13 41l311 607q19 34 34 36t27 2h287q43 0 43 -41t-43 -41h-202v-233h193q43 0 43 -41z" />
    <glyph glyph-name="Oslash" unicode="&#xaf;" horiz-adv-x="686" 
d="M635 726q31 0 31 -28q0 -13 -12 -26l-69 -80q70 -98 70 -241t-83.5 -250t-215.5 -107q-133 0 -215 80l-61 -72q-13 -16 -29 -16t-23.5 9t-7.5 20t14 28l66 77q-69 101 -69 243t83.5 248.5t216.5 106.5t214 -79l59 70q14 17 31 17zM194 135q55 -65 157 -65
q103 0 156.5 84.5t53.5 191.5q0 106 -34 178zM125 366q0 -106 35 -176l332 388q-57 64 -133 64q-126 0 -180 -85t-54 -191z" />
    <glyph glyph-name="plusminus" unicode="&#xb1;" horiz-adv-x="600" 
d="M553 41q0 -41 -43 -41h-420q-43 0 -43 41t43 41h420q43 0 43 -41zM47 312q0 41 43 41h169v110q0 43 41 43t41 -43v-110h169q43 0 43 -41t-43 -41h-169v-110q0 -43 -41 -43t-41 43v110h-169q-43 0 -43 41z" />
    <glyph glyph-name="yen" unicode="&#xb4;" horiz-adv-x="536" 
d="M46 228q0 33 41 33h137v71h-137q-41 0 -41 33t41 33h96l-160 247q-15 21 -15 37q0 17 11.5 26.5t31 9.5t38.5 -28l179 -269l179 269q19 28 38.5 28t31 -9.5t11.5 -26.5t-15 -37l-160 -247h96q41 0 41 -33t-41 -33h-137v-71h137q41 0 41 -33t-41 -33h-137v-154
q0 -47 -44 -47t-44 47v154h-137q-41 0 -41 33z" />
    <glyph glyph-name="mu" unicode="&#xb5;" horiz-adv-x="538" 
d="M102 -216q-44 0 -44 47v660q0 47 44 47t44 -47v-282q0 -74 27.5 -106.5t95.5 -32.5t95.5 32.5t27.5 106.5v282q0 47 44 47t44 -47v-450q0 -47 -44 -47q-33 0 -41 29q-47 -29 -127 -29t-122 46v-209q0 -47 -44 -47z" />
    <glyph glyph-name="ordfeminine" unicode="&#xbb;" horiz-adv-x="361" 
d="M184 451q38 0 60.5 31.5t22.5 61.5q0 31 -6 50t-16.5 33t-26 22.5t-43.5 8.5t-51 -30t-23 -62t6 -50.5t22.5 -41.5t54.5 -23zM299 718q33 0 33 -26v-275q0 -26 -33 -26t-33 26v16h-2q-29 -42 -74 -42q-44 0 -72 12.5t-48 35t-30.5 52.5t-10.5 82.5t42 98.5t103 46t90 -42
h2v16q0 26 33 26z" />
    <glyph glyph-name="ordmasculine" unicode="&#xbc;" horiz-adv-x="350" 
d="M95 554q0 -20 6 -38.5t16.5 -33t25 -23t41.5 -8.5t49 30.5t22 62.5q0 31 -5.5 50t-16 33t-25.5 22.5t-33 8.5t-32.5 -8.5t-25 -22.5t-16.5 -33.5t-6 -39.5zM23 555q0 34 10.5 64t30.5 52t48 34.5t79.5 12.5t93.5 -46t42 -99t-10.5 -83t-30.5 -52t-48 -34.5t-63 -12.5
t-63 12.5t-48 35t-30.5 52.5t-10.5 64z" />
    <glyph glyph-name="ae" unicode="&#xbe;" horiz-adv-x="889" 
d="M495 298h280q0 64 -36.5 114t-105.5 50t-103.5 -49t-34.5 -115zM499 473q52 65 148 65q80 0 148 -72t68 -187q0 -23 -10 -35t-39 -12h-325q2 -65 45.5 -113.5t112.5 -46.5t101 25t46 34t26 11t22 -10t10 -28q1 -35 -63 -72.5t-133 -37.5q-105 0 -157 64h-2v-21
q0 -23 -13.5 -33t-27.5 -10t-27.5 10t-13.5 33v37h-2q-55 -80 -153 -80t-161.5 80t-63.5 192t63.5 192t157.5 80t157 -71h2v28q0 23 13.5 33t27.5 10t27.5 -10t13.5 -33v-22h2zM269 70q74 0 110 58.5t36 137.5t-36 137.5t-110 58.5t-110 -58.5t-36 -137.5t36 -137.5
t110 -58.5z" />
    <glyph glyph-name="oslash" unicode="&#xbf;" horiz-adv-x="538" 
d="M262 70q81 0 117 58.5t36 127.5t-20 114l-218 -263q37 -37 85 -37zM276 462q-81 0 -117 -58.5t-36 -128.5q0 -69 20 -113l218 263q-37 37 -85 37zM56 -24q-32 0 -33 30q0 12 18 33l45 54q-51 69 -51 177t63.5 188t158.5 80t155 -51l41 50q14 19 29 19q33 0 33 -28
q0 -15 -14 -31l-48 -57q50 -76 50 -152q0 -134 -63.5 -214t-158.5 -80q-96 0 -154 52l-42 -51q-13 -19 -29 -19z" />
    <glyph glyph-name="questiondown" unicode="&#xc0;" horiz-adv-x="444" 
d="M281 487q0 -21 -15 -36t-36 -15t-36 15t-15 36t15 36t36 15t36 -15t15 -36zM230 341q44 0 44 -47v-113q0 -36 -11 -47t-50 -18q-62 -12 -81.5 -43t-19.5 -75q0 -43 32 -72.5t78 -29.5t75.5 17t41.5 51t20.5 40.5t24.5 6.5t29.5 -12.5t12.5 -39.5q-2 -56 -62 -100.5
t-119 -44.5q-105 0 -166 52.5t-61 132.5t46.5 129.5t121.5 65.5v100q0 47 44 47z" />
    <glyph glyph-name="exclamdown" unicode="&#xc1;" horiz-adv-x="296" 
d="M199 487q0 -21 -15 -36t-36 -15t-36 15t-15 36t15 36t36 15t36 -15t15 -36zM148 341q44 0 44 -47v-433q0 -47 -44 -47t-44 47v433q0 47 44 47z" />
    <glyph glyph-name="logicalnot" unicode="&#xc2;" horiz-adv-x="600" 
d="M512 108q-41 0 -41 43v165h-381q-43 0 -43 41t43 41h422q41 0 41 -43v-204q0 -43 -41 -43z" />
    <glyph glyph-name="florin" unicode="&#xc4;" horiz-adv-x="536" 
d="M36 -216q-54 0 -55 38q0 38 45 39h41q26 0 39.5 30.5t24.5 93.5l66 371h-50q-16 0 -27 11t-11 27t11 27t27 11h63l22 124q15 85 50.5 123.5t103.5 38.5t68 -38q0 -32 -46 -32t-64 -25.5t-28 -79.5l-20 -111h62q16 0 27 -11t11 -27t-11 -27t-27 -11h-75l-72 -396
q-17 -97 -41 -125.5t-52 -39.5t-82 -11z" />
    <glyph glyph-name="guillemotleft" unicode="&#xc7;" horiz-adv-x="407" 
d="M211 99q0 -35 -40 -35q-19 0 -34 26l-99 178l99 178q15 26 34 26q40 0 40 -35q0 -12 -11 -31l-83 -138l83 -138q11 -19 11 -31zM369 99q0 -35 -40 -35q-19 0 -34 26l-99 178l99 178q15 26 34 26q40 0 40 -35q0 -12 -11 -31l-83 -138l83 -138q11 -19 11 -31z" />
    <glyph glyph-name="guillemotright" unicode="&#xc8;" horiz-adv-x="407" 
d="M196 99q0 12 11 31l83 138l-83 138q-11 19 -11 31q0 35 40 35q19 0 34 -26l99 -178l-99 -178q-15 -26 -34 -26q-40 0 -40 35zM38 99q0 12 11 31l83 138l-83 138q-11 19 -11 31q0 35 40 35q19 0 34 -26l99 -178l-99 -178q-15 -26 -34 -26q-40 0 -40 35z" />
    <glyph glyph-name="ellipsis" unicode="&#xc9;" horiz-adv-x="1000" 
d="M782 45q0 21 15 36t36 15t36 -15t15 -36t-15 -36t-36 -15t-36 15t-15 36zM449 45q0 21 15 36t36 15t36 -15t15 -36t-15 -36t-36 -15t-36 15t-15 36zM116 45q0 21 15 36t36 15t36 -15t15 -36t-15 -36t-36 -15t-36 15t-15 36z" />
    <glyph glyph-name="Agrave" unicode="&#xcb;" horiz-adv-x="612" 
d="M444 231l-137 385h-2l-137 -385h276zM10 31q0 9 5 23t7 21l221 589q19 54 63 54t63 -54l221 -589q2 -7 7 -21t5 -27t-12 -23t-37 -10q-24 0 -36 33l-46 128h-330l-46 -128q-12 -33 -36 -33q-49 0 -49 37zM195 861q0 9 9 25t24 16t39 -9l115 -47q35 -13 35 -37
q0 -11 -9 -27t-24 -15q-15 0 -39 9l-115 47q-35 13 -35 38z" />
    <glyph glyph-name="Atilde" unicode="&#xcc;" horiz-adv-x="612" 
d="M444 231l-137 385h-2l-137 -385h276zM10 31q0 9 5 23t7 21l221 589q19 54 63 54t63 -54l221 -589q2 -7 7 -21t5 -27t-12 -23t-37 -10q-24 0 -36 33l-46 128h-330l-46 -128q-12 -33 -36 -33q-49 0 -49 37zM157 818q-1 20 25 40t56 20q40 0 70 -10q31 -10 47 -10
q21 0 38 10q18 10 29 10t22 -12t11 -30q1 -20 -25 -40t-56 -20q-40 0 -70 10q-31 10 -46 10q-21 0 -39 -10t-29 -10t-22 12q-11 10 -11 30z" />
    <glyph glyph-name="Otilde" unicode="&#xcd;" horiz-adv-x="686" 
d="M31 356q0 68 20 134q19 66 59 116t98 82q58 30 135 30t135 -30t98 -82q40 -50 59 -116q20 -66 20 -134t-20 -134q-19 -66 -59 -116t-98 -82q-58 -30 -135 -30t-135 30t-98 82q-40 50 -59 116q-20 66 -20 134zM125 356q-1 -51 11 -102t38 -92q26 -40 68 -66t101 -26
t101 26t68 66q26 41 38 92t11 102q1 51 -11 102t-38 92q-26 40 -68 66t-101 26t-101 -26t-68 -66q-26 -41 -38 -92t-11 -102zM194 818q0 20 26 40t54 20q38 0 70 -10q31 -10 48 -10q21 0 38 10t29 10q11 0 22 -12t11 -30q0 -20 -26 -40t-54 -20q-38 0 -70 10q-31 10 -47 10
q-21 0 -39 -10t-29 -10t-22 12q-11 10 -11 30z" />
    <glyph glyph-name="OE" unicode="&#xce;" horiz-adv-x="926" 
d="M601 0q-47 0 -47 48v56h-2q-33 -48 -88.5 -79t-125.5 -31t-129 30.5t-98.5 81t-59.5 116t-20 174.5t83.5 215.5t217.5 106.5t222 -100v46q0 48 47 48h241q43 0 43 -41t-43 -41h-200v-233h193q43 0 43 -41t-43 -41h-193v-233h210q43 0 43 -41t-43 -41h-251zM125 356
q0 -51 11.5 -102t37.5 -92t67.5 -66.5t101.5 -25.5t101.5 25.5t67.5 66.5t37.5 92t11.5 102t-11.5 102t-37.5 92t-67.5 66.5t-101.5 25.5t-101.5 -25.5t-67.5 -66.5t-37.5 -92t-11.5 -102z" />
    <glyph glyph-name="oe" unicode="&#xcf;" horiz-adv-x="907" 
d="M268 462q-40 0 -67.5 -18t-45 -46.5t-25 -63t-7.5 -68.5t7.5 -68.5t25 -63t45 -46.5t67.5 -18t67.5 18t45 46.5t25 63t7.5 68.5t-7.5 68.5t-25 63t-45 46.5t-67.5 18zM35 266q0 111 62.5 191.5t176.5 80.5t185 -104q27 47 76 75.5t109 28.5q110 0 173.5 -78t63.5 -181
q0 -23 -10 -35t-39 -12h-331q0 -113 62.5 -137t102.5 -23t67.5 11.5t46 23.5t32.5 24t26 11t22 -10t10 -28q1 -35 -67 -72.5t-141 -37.5q-143 0 -203 104q-74 -104 -187 -104t-175 80.5t-62 191.5zM501 298h292q0 105 -54 134.5t-108 29.5t-92 -49.5t-38 -114.5z" />
    <glyph glyph-name="endash" unicode="&#xd0;" horiz-adv-x="500" 
d="M462 230h-424q-16 0 -27 11t-11 27t11 27t27 11h424q16 0 27 -11t11 -27t-11 -27t-27 -11z" />
    <glyph glyph-name="emdash" unicode="&#xd1;" horiz-adv-x="1000" 
d="M0 306h1000q16 0 27 -11t11 -27t-11 -27t-27 -11h-1000q-16 0 -27 11t-11 27t11 27t27 11z" />
    <glyph glyph-name="quotedblleft" unicode="&#xd2;" horiz-adv-x="334" 
d="M128 718q45 0 45 -38q0 -15 -11 -37l-56 -110q-21 -37 -42 -37t-33 10.5t-12 26.5t11 38l56 110q21 37 42 37zM270 718q45 0 45 -38q0 -15 -11 -37l-56 -110q-21 -37 -42 -37t-33 10.5t-12 26.5t11 38l56 110q21 37 42 37z" />
    <glyph glyph-name="quotedblright" unicode="&#xd3;" horiz-adv-x="334" 
d="M128 718q45 0 45 -38q0 -15 -11 -37l-56 -110q-21 -37 -42 -37t-33 10.5t-12 26.5t11 38l56 110q21 37 42 37zM270 718q45 0 45 -38q0 -15 -11 -37l-56 -110q-21 -37 -42 -37t-33 10.5t-12 26.5t11 38l56 110q21 37 42 37z" />
    <glyph glyph-name="quoteleft" unicode="&#xd4;" 
d="M134 718q45 0 45 -38q0 -15 -11 -37l-56 -110q-21 -37 -42 -37t-33 10.5t-12 26.5t11 38l56 110q21 37 42 37z" />
    <glyph glyph-name="quoteright" unicode="&#xd5;" 
d="M134 718q45 0 45 -38q0 -15 -11 -37l-56 -110q-21 -37 -42 -37t-33 10.5t-12 26.5t11 38l56 110q21 37 42 37z" />
    <glyph glyph-name="divide" unicode="&#xd6;" horiz-adv-x="600" 
d="M228 46q0 30 21 51t51 21t51 -21t21 -51t-21 -51t-51 -21t-51 21t-21 51zM228 460q0 30 21 51t51 21t51 -21t21 -51t-21 -51t-51 -21t-51 21t-21 51zM553 253q0 -41 -43 -41h-420q-43 0 -43 41t43 41h420q43 0 43 -41z" />
    <glyph glyph-name="ydieresis" unicode="&#xd8;" horiz-adv-x="444" 
d="M17 502q1 16 13 26t36 10t35 -33l122 -365h2l120 365q12 33 34 33q48 0 48 -37q0 -14 -12 -49l-222 -635q-12 -33 -35 -33q-48 0 -48 37q0 12 13 49l56 149l-150 433q-12 34 -12 50zM261 658q-1 22 15 38t39 16t39 -16t15 -38q1 -22 -15 -38t-39 -16t-39 16t-15 38z
M75 658q-1 22 15 38t39 16t39 -16t15 -38q1 -22 -15 -38t-39 -16t-39 16t-15 38z" />
    <glyph glyph-name="Ydieresis" unicode="&#xd9;" horiz-adv-x="500" 
d="M250 -6q-44 0 -44 47v293l-191 311q-14 22 -14 37q0 36 40 36q28 0 44 -28l165 -269l165 269q16 28 44 28q40 0 40 -36q0 -15 -14 -37l-191 -311v-293q0 -47 -44 -47zM289 818q-1 22 15 38t39 16t39 -16t15 -38q1 -22 -15 -38t-39 -16t-39 16t-15 38zM103 818
q-1 22 15 38t39 16t39 -16t15 -38q1 -22 -15 -38t-39 -16t-39 16t-15 38z" />
    <glyph glyph-name="fraction" unicode="&#xda;" horiz-adv-x="168" 
d="M222 726q20 0 28.5 -9t8.5 -20t-14 -43l-266 -638q-13 -30 -42 -30q-28 0 -28 27q0 10 14 45l266 638q13 30 33 30z" />
    <glyph glyph-name="currency" unicode="&#xdb;" horiz-adv-x="536" 
d="M102 356q0 -38 13.5 -70t36 -54.5t53 -35t63.5 -12.5t63.5 12.5t53 35t36 54.5t13.5 70t-13.5 70t-36 54.5t-53 35t-63.5 12.5t-63.5 -12.5t-53 -35t-36 -54.5t-13.5 -70zM20 356q0 94 49 149l-34 35q-14 14 -14 29t12 25t22 10t21 -11l42 -43q58 54 150 54t150 -54
l42 43q11 11 21 11t22 -10t12 -25t-14 -29l-34 -35q49 -55 49 -149t-49 -149l34 -35q14 -14 14 -29t-12 -25t-22 -10t-21 11l-42 43q-58 -54 -150 -54t-150 54l-42 -43q-11 -11 -21 -11t-22 10t-12 25t14 29l34 35q-49 55 -49 149z" />
    <glyph glyph-name="guilsinglleft" unicode="&#xdc;" horiz-adv-x="259" 
d="M216 99q0 -35 -40 -35q-19 0 -34 26l-99 178l99 178q15 26 34 26q40 0 40 -35q0 -12 -11 -31l-83 -138l83 -138q11 -19 11 -31z" />
    <glyph glyph-name="guilsinglright" unicode="&#xdd;" horiz-adv-x="259" 
d="M43 99q0 12 11 31l83 138l-83 138q-11 19 -11 31q0 35 40 35q19 0 34 -26l99 -178l-99 -178q-15 -26 -34 -26q-40 0 -40 35z" />
    <glyph glyph-name="fi" unicode="&#xde;" horiz-adv-x="463" 
d="M210 696q-36 0 -36 -35v-129h55q44 0 44 -38t-44 -38h-55v-415q0 -47 -44 -47t-44 47v415h-36q-44 0 -44 38t44 38h36v125q0 58 34.5 86.5t82.5 28.5h27q17 0 33.5 -10t16.5 -28q0 -38 -48 -38h-22zM307 664q0 23 15.5 38.5t38.5 15.5t38.5 -15.5t15.5 -38.5t-15.5 -38.5
t-38.5 -15.5t-38.5 15.5t-15.5 38.5zM361 538q44 0 44 -47v-450q0 -47 -44 -47t-44 47v450q0 47 44 47z" />
    <glyph glyph-name="fl" unicode="&#xdf;" horiz-adv-x="463" 
d="M361 772q44 0 44 -47v-684q0 -47 -44 -47t-44 47v684q0 47 44 47zM210 696q-36 0 -36 -35v-129h55q44 0 44 -38t-44 -38h-55v-415q0 -47 -44 -47t-44 47v415h-36q-44 0 -44 38t44 38h36v125q0 58 34.5 86.5t82.5 28.5h27q17 0 33.5 -10t16.5 -28q0 -38 -48 -38h-22z" />
    <glyph glyph-name="daggerdbl" unicode="&#xe0;" horiz-adv-x="612" 
d="M27 53q0 41 43 41h195v314h-195q-43 0 -43 41t43 41h195v185q0 43 41 43t41 -43v-185h195q43 0 43 -41t-43 -41h-195v-314h195q43 0 43 -41t-43 -41h-195v-185q0 -43 -41 -43t-41 43v185h-195q-43 0 -43 41z" />
    <glyph glyph-name="periodcentered" unicode="&#xe1;" horiz-adv-x="250" 
d="M71 303q0 23 15.5 38.5t38.5 15.5t38.5 -15.5t15.5 -38.5t-15.5 -38.5t-38.5 -15.5t-38.5 15.5t-15.5 38.5z" />
    <glyph glyph-name="quotesinglbase" unicode="&#xe2;" 
d="M134 96q45 0 45 -38q0 -15 -11 -37l-56 -110q-21 -37 -42 -37t-33 10.5t-12 26.5t11 38l56 110q21 37 42 37z" />
    <glyph glyph-name="quotedblbase" unicode="&#xe3;" horiz-adv-x="334" 
d="M128 96q45 0 45 -38q0 -15 -11 -37l-56 -110q-21 -37 -42 -37t-33 10.5t-12 26.5t11 38l56 110q21 37 42 37zM270 96q45 0 45 -38q0 -15 -11 -37l-56 -110q-21 -37 -42 -37t-33 10.5t-12 26.5t11 38l56 110q21 37 42 37z" />
    <glyph glyph-name="perthousand" unicode="&#xe4;" horiz-adv-x="1093" 
d="M895 48q24 0 40.5 10.5t26.5 27t14.5 37t4.5 40.5t-4.5 40.5t-14.5 37t-26.5 27t-40.5 10.5t-40.5 -10.5t-26.5 -27t-14.5 -37t-4.5 -40.5t4.5 -40.5t14.5 -37t26.5 -27t40.5 -10.5zM896 -6q-38 0 -66.5 14t-48 37t-29 54t-9.5 84t41 101t111 48t111 -48t41 -101
t-9.5 -84t-29 -54t-47 -37t-65.5 -14zM198 434q24 0 40.5 10.5t26.5 27t14.5 37t4.5 40.5t-4.5 40.5t-14.5 37t-26.5 27t-40.5 10.5t-40.5 -10.5t-26.5 -27t-14.5 -37t-4.5 -40.5t4.5 -40.5t14.5 -37t26.5 -27t40.5 -10.5zM198 380q-38 0 -66 14t-47.5 37t-29 54t-9.5 84
t41 101t111 48t111 -48t41 -101t-9.5 -84t-29 -54t-47.5 -37t-66 -14zM545 48q24 0 40.5 10.5t26.5 27t14.5 37t4.5 40.5t-4.5 40.5t-14.5 37t-26.5 27t-40.5 10.5t-40.5 -10.5t-26.5 -27t-14.5 -37t-4.5 -40.5t4.5 -40.5t14.5 -37t26.5 -27t40.5 -10.5zM546 -6
q-38 0 -66.5 14t-48 37t-29 54t-9.5 84t41 101t111 48t111 -48t41 -101t-9.5 -84t-29 -54t-47 -37t-65.5 -14zM510 726q20 0 28.5 -9t8.5 -18t-14 -45l-266 -638q-13 -30 -42 -30q-28 0 -28 27q0 10 14 45l266 638q13 30 33 30z" />
    <glyph glyph-name="Acircumflex" unicode="&#xe5;" horiz-adv-x="612" 
d="M444 231l-137 385h-2l-137 -385h276zM10 31q0 9 5 23t7 21l221 589q19 54 63 54t63 -54l221 -589q2 -7 7 -21t5 -27t-12 -23t-37 -10q-24 0 -36 33l-46 128h-330l-46 -128q-12 -33 -36 -33q-49 0 -49 37zM190 767q-36 0 -36 38q0 25 23 35l129 55l129 -55q23 -10 23 -35
q0 -38 -36 -38q-10 0 -22 5l-94 37l-94 -37q-12 -5 -22 -5z" />
    <glyph glyph-name="Ecircumflex" unicode="&#xe6;" horiz-adv-x="444" 
d="M382 356q0 -41 -43 -41h-193v-233h212q43 0 43 -41t-43 -41h-253q-47 0 -47 48v616q0 48 47 48h253q43 0 43 -41t-43 -41h-212v-233h193q43 0 43 -41zM106 767q-36 0 -36 38q0 25 23 35l129 55l129 -55q23 -10 23 -35q0 -38 -36 -38q-10 0 -22 5l-94 37l-94 -37
q-12 -5 -22 -5z" />
    <glyph glyph-name="Aacute" unicode="&#xe7;" horiz-adv-x="612" 
d="M444 231l-137 385h-2l-137 -385h276zM10 31q0 9 5 23t7 21l221 589q19 54 63 54t63 -54l221 -589q2 -7 7 -21t5 -27t-12 -23t-37 -10q-24 0 -36 33l-46 128h-330l-46 -128q-12 -33 -36 -33q-49 0 -49 37zM228 767q-15 -1 -24 15t-9 26q0 25 35 38l115 47q23 9 39 9
q15 0 24 -16t9 -25q0 -25 -35 -38l-115 -47q-24 -9 -39 -9z" />
    <glyph glyph-name="Edieresis" unicode="&#xe8;" horiz-adv-x="444" 
d="M382 356q0 -41 -43 -41h-193v-233h212q43 0 43 -41t-43 -41h-253q-47 0 -47 48v616q0 48 47 48h253q43 0 43 -41t-43 -41h-212v-233h193q43 0 43 -41zM261 818q-1 22 15 38t39 16t39 -16t15 -38q1 -22 -15 -38t-39 -16t-39 16t-15 38zM75 818q-1 22 15 38t39 16t39 -16
t15 -38q1 -22 -15 -38t-39 -16t-39 16t-15 38z" />
    <glyph glyph-name="Egrave" unicode="&#xe9;" horiz-adv-x="444" 
d="M382 356q0 -41 -43 -41h-193v-233h212q43 0 43 -41t-43 -41h-253q-47 0 -47 48v616q0 48 47 48h253q43 0 43 -41t-43 -41h-212v-233h193q43 0 43 -41zM111 861q0 9 9 25t24 16t39 -9l115 -47q35 -13 35 -37q0 -11 -9 -27t-24 -15q-15 0 -39 9l-115 47q-35 13 -35 38z" />
    <glyph glyph-name="Iacute" unicode="&#xea;" 
d="M102 718q44 0 44 -47v-630q0 -47 -44 -47t-44 47v630q0 47 44 47zM24 767q-15 -1 -24 15t-9 26q0 25 35 38l115 47q23 9 39 9q15 0 24 -16t9 -25q0 -25 -35 -38l-115 -47q-24 -9 -39 -9z" />
    <glyph glyph-name="Icircumflex" unicode="&#xeb;" 
d="M102 718q44 0 44 -47v-630q0 -47 -44 -47t-44 47v630q0 47 44 47zM-14 767q-36 0 -36 38q0 25 23 35l129 55l129 -55q23 -10 23 -35q0 -38 -36 -38q-10 0 -22 5l-94 37l-94 -37q-12 -5 -22 -5z" />
    <glyph glyph-name="Idieresis" unicode="&#xec;" 
d="M102 718q44 0 44 -47v-630q0 -47 -44 -47t-44 47v630q0 47 44 47zM141 818q-1 22 15 38t39 16t39 -16t15 -38q1 -22 -15 -38t-39 -16t-39 16t-15 38zM-45 818q-1 22 15 38t39 16t39 -16t15 -38q1 -22 -15 -38t-39 -16t-39 16t-15 38z" />
    <glyph glyph-name="Igrave" unicode="&#xed;" 
d="M102 718q44 0 44 -47v-630q0 -47 -44 -47t-44 47v630q0 47 44 47zM-9 861q0 9 9 25t24 16t39 -9l115 -47q35 -13 35 -37q0 -11 -9 -27t-24 -15q-15 0 -39 9l-115 47q-35 13 -35 38z" />
    <glyph glyph-name="Oacute" unicode="&#xee;" horiz-adv-x="686" 
d="M31 356q0 68 20 134q19 66 59 116t98 82q58 30 135 30t135 -30t98 -82q40 -50 59 -116q20 -66 20 -134t-20 -134q-19 -66 -59 -116t-98 -82q-58 -30 -135 -30t-135 30t-98 82q-40 50 -59 116q-20 66 -20 134zM125 356q-1 -51 11 -102t38 -92q26 -40 68 -66t101 -26
t101 26t68 66q26 41 38 92t11 102q1 51 -11 102t-38 92q-26 40 -68 66t-101 26t-101 -26t-68 -66q-26 -41 -38 -92t-11 -102zM265 767q-15 -1 -24 15t-9 26q0 25 35 38l115 47q23 9 39 9q15 0 24 -16t9 -25q0 -25 -35 -38l-115 -47q-24 -9 -39 -9z" />
    <glyph glyph-name="Ocircumflex" unicode="&#xef;" horiz-adv-x="686" 
d="M31 356q0 68 20 134q19 66 59 116t98 82q58 30 135 30t135 -30t98 -82q40 -50 59 -116q20 -66 20 -134t-20 -134q-19 -66 -59 -116t-98 -82q-58 -30 -135 -30t-135 30t-98 82q-40 50 -59 116q-20 66 -20 134zM125 356q-1 -51 11 -102t38 -92q26 -40 68 -66t101 -26
t101 26t68 66q26 41 38 92t11 102q1 51 -11 102t-38 92q-26 40 -68 66t-101 26t-101 -26t-68 -66q-26 -41 -38 -92t-11 -102zM227 767q-36 0 -36 38q0 25 23 35l129 55l129 -55q23 -10 23 -35q0 -38 -36 -38q-10 0 -22 5l-94 37l-94 -37q-12 -5 -22 -5z" />
    <glyph glyph-name="Ograve" unicode="&#xf1;" horiz-adv-x="686" 
d="M31 356q0 68 20 134q19 66 59 116t98 82q58 30 135 30t135 -30t98 -82q40 -50 59 -116q20 -66 20 -134t-20 -134q-19 -66 -59 -116t-98 -82q-58 -30 -135 -30t-135 30t-98 82q-40 50 -59 116q-20 66 -20 134zM125 356q-1 -51 11 -102t38 -92q26 -40 68 -66t101 -26
t101 26t68 66q26 41 38 92t11 102q1 51 -11 102t-38 92q-26 40 -68 66t-101 26t-101 -26t-68 -66q-26 -41 -38 -92t-11 -102zM232 861q0 9 9 25t24 16t39 -9l115 -47q35 -13 35 -37q0 -11 -9 -27t-24 -15q-15 0 -39 9l-115 47q-35 13 -35 38z" />
    <glyph glyph-name="Uacute" unicode="&#xf2;" horiz-adv-x="668" 
d="M566 718q44 0 44 -47v-389q0 -162 -92 -234q-70 -54 -184 -54q-184 0 -250 142q-26 56 -26 146v389q0 47 44 47t44 -47v-423q0 -84 52 -131t136 -47t136 47t52 131v423q0 47 44 47zM256 767q-15 -1 -24 15t-9 26q0 25 35 38l115 47q23 9 39 9q15 0 24 -16t9 -25
q0 -25 -35 -38l-115 -47q-24 -9 -39 -9z" />
    <glyph glyph-name="Ucircumflex" unicode="&#xf3;" horiz-adv-x="668" 
d="M566 718q44 0 44 -47v-389q0 -162 -92 -234q-70 -54 -184 -54q-184 0 -250 142q-26 56 -26 146v389q0 47 44 47t44 -47v-423q0 -84 52 -131t136 -47t136 47t52 131v423q0 47 44 47zM218 767q-36 0 -36 38q0 25 23 35l129 55l129 -55q23 -10 23 -35q0 -38 -36 -38
q-10 0 -22 5l-94 37l-94 -37q-12 -5 -22 -5z" />
    <glyph glyph-name="Ugrave" unicode="&#xf4;" horiz-adv-x="668" 
d="M566 718q44 0 44 -47v-389q0 -162 -92 -234q-70 -54 -184 -54q-184 0 -250 142q-26 56 -26 146v389q0 47 44 47t44 -47v-423q0 -84 52 -131t136 -47t136 47t52 131v423q0 47 44 47zM223 861q0 9 9 25t24 16t39 -9l115 -47q35 -13 35 -37q0 -11 -9 -27t-24 -15
q-15 0 -39 9l-115 47q-35 13 -35 38z" />
    <glyph glyph-name="dotlessi" unicode="&#xf5;" 
d="M102 538q44 0 44 -47v-450q0 -47 -44 -47t-44 47v450q0 47 44 47z" />
    <glyph glyph-name="circumflex" unicode="&#xf6;" 
d="M-14 607q-36 0 -36 38q0 25 23 35l129 55l129 -55q23 -10 23 -35q0 -38 -36 -38q-10 0 -22 5l-94 37l-94 -37q-12 -5 -22 -5z" />
    <glyph glyph-name="tilde" unicode="&#xf7;" 
d="M-47 658q0 20 25.5 40t55.5 20q39 0 70 -10t47 -10q21 0 38 10t29 10q11 0 22 -11t11 -31t-25.5 -40t-55.5 -20q-39 0 -70 10t-46 10q-21 0 -39 -10t-29 -10t-22 11t-11 31z" />
    <glyph glyph-name="macron" unicode="&#xf8;" 
d="M-42 648q0 41 43 41h202q43 0 43 -41t-43 -41h-202q-43 0 -43 41z" />
    <glyph glyph-name="breve" unicode="&#xf9;" 
d="M207 733q30 1 30 -39q0 -38 -44.5 -66t-90.5 -28t-90.5 28t-44.5 66q0 39 31 39q12 0 21.5 -9t21 -19.5t26 -19.5t35.5 -9t35.5 9t26 19.5t21 19.5t22.5 9z" />
    <glyph glyph-name="dotaccent" unicode="&#xfa;" 
d="M48 658q0 23 15.5 38.5t38.5 15.5t38.5 -15.5t15.5 -38.5t-15.5 -38.5t-38.5 -15.5t-38.5 15.5t-15.5 38.5z" />
    <glyph glyph-name="ring" unicode="&#xfb;" 
d="M56 678q0 -19 13.5 -32.5t32.5 -13.5t32.5 13.5t13.5 32.5t-13.5 32.5t-32.5 13.5t-32.5 -13.5t-13.5 -32.5zM35 744.5q27 27.5 57 27.5q48 0 76 -27.5t28 -56.5q0 -49 -27.5 -76.5t-56.5 -27.5t-46.5 7.5t-37.5 27.5t-20 59t27 66.5z" />
    <glyph glyph-name="cedilla" unicode="&#xfc;" 
d="M157 -83q-11 2 -37 2t-26 22q0 7 10 22l26 37h53l-29 -42q12 3 25 3q26 0 45.5 -17.5t19.5 -37.5q0 -86 -111 -86q-73 0 -73 35q0 27 21 27l52 -8q35 0 35 27q0 14 -11 16z" />
    <glyph glyph-name="hungarumlaut" unicode="&#xfd;" 
d="M134 607q-15 0 -24 15.5t-9 25.5q0 25 35 38l115 47q23 9 39 9q15 0 24 -15.5t9 -25.5q0 -25 -35 -38l-115 -47q-24 -9 -39 -9zM-86 607q-15 0 -24 15.5t-9 25.5q0 25 35 38l115 47q23 9 39 9q15 0 24 -15.5t9 -25.5q0 -25 -35 -38l-115 -47q-24 -9 -39 -9z" />
    <glyph glyph-name="ogonek" unicode="&#xfe;" 
d="M244 -139q0 -39 -85 -39q-39 0 -69 18.5t-30 58.5t55 80l31 23h53l-26 -24q-37 -35 -37 -69q0 -33 37 -33l47 8q24 0 24 -23z" />
    <glyph glyph-name="caron" unicode="&#xff;" 
d="M218 735q36 0 36 -38q0 -25 -23 -35l-129 -55l-129 55q-23 10 -23 35q0 38 36 38q10 0 22 -5l94 -37l94 37q12 5 22 5z" />
    <glyph glyph-name="aring" unicode="&#x152;" horiz-adv-x="556" 
d="M269 70q74 0 110 59t36 115q0 101 -36 159q-36 59 -110 59t-110 -59t-36 -137q0 -79 36 -137q36 -59 110 -59zM281 538q68 0 133 -71h2v28q0 23 14 33t26 10q14 0 28 -10t14 -33v-458q0 -23 -14 -33t-28 -10t-26 10q-14 10 -14 33v37h-2q-57 -80 -155 -80t-161 80
t-63 192t63 192t183 80zM232 678q0 -18 14 -32t32 -14t32 14t14 32t-14 32t-32 14t-32 -14t-14 -32zM212 744q28 28 56 28q48 0 76 -28t28 -56q0 -48 -28 -76t-56 -28t-46 8t-30 20q-28 28 -28 66t28 66z" />
    <glyph glyph-name="uacute" unicode="&#x153;" horiz-adv-x="538" 
d="M436 538q44 0 44 -47v-285q0 -108 -60 -160t-151 -52q-143 0 -193 114q-18 40 -18 98v285q0 47 44 47t44 -47v-282q0 -139 123 -139t123 139v282q0 47 44 47zM191 607q-15 -1 -24 15t-9 26q0 25 35 38l115 47q23 9 39 9q15 0 24 -16t9 -25q0 -25 -35 -38l-115 -47
q-24 -9 -39 -9z" />
    <glyph glyph-name="adieresis" unicode="&#x160;" horiz-adv-x="556" 
d="M269 70q74 0 110 59t36 115q0 101 -36 159q-36 59 -110 59t-110 -59t-36 -137q0 -79 36 -137q36 -59 110 -59zM281 538q68 0 133 -71h2v28q0 23 14 33t26 10q14 0 28 -10t14 -33v-458q0 -23 -14 -33t-28 -10t-26 10q-14 10 -14 33v37h-2q-57 -80 -155 -80t-161 80
t-63 192t63 192t183 80zM317 658q-1 22 15 38t39 16t39 -16t15 -38q1 -22 -15 -38t-39 -16t-39 16t-15 38zM131 658q-1 22 15 38t39 16t39 -16t15 -38q1 -22 -15 -38t-39 -16t-39 16t-15 38z" />
    <glyph glyph-name="odieresis" unicode="&#x161;" horiz-adv-x="538" 
d="M269 70q74 0 110 59t36 115q0 101 -36 159q-36 59 -110 59t-110 -59t-36 -137q0 -79 36 -137q36 -59 110 -59zM35 266q-1 53 15 102t46 87q30 39 74 61t99 22t99 -22t74 -61q30 -38 46 -87t15 -102q1 -53 -15 -102t-46 -87q-30 -39 -74 -61t-99 -22t-99 22t-74 61
q-30 38 -46 87t-15 102zM308 658q0 22 16 38t38 16t38 -16t16 -38t-16 -38t-38 -16t-38 16t-16 38zM122 658q0 22 16 38t38 16t38 -16t16 -38t-16 -38t-38 -16t-38 16t-16 38z" />
    <glyph glyph-name="udieresis" unicode="&#x178;" horiz-adv-x="538" 
d="M436 538q44 0 44 -47v-285q0 -108 -60 -160t-151 -52q-143 0 -193 114q-18 40 -18 98v285q0 47 44 47t44 -47v-282q0 -139 123 -139t123 139v282q0 47 44 47zM308 658q0 22 16 38t38 16t38 -16t16 -38t-16 -38t-38 -16t-38 16t-16 38zM122 658q0 22 16 38t38 16t38 -16
t16 -38t-16 -38t-38 -16t-38 16t-16 38z" />
    <glyph glyph-name="Eacute" unicode="&#x192;" horiz-adv-x="444" 
d="M382 356q0 -41 -43 -41h-193v-233h212q43 0 43 -41t-43 -41h-253q-47 0 -47 48v616q0 48 47 48h253q43 0 43 -41t-43 -41h-212v-233h193q43 0 43 -41zM144 767q-15 -1 -24 15t-9 26q0 25 35 38l115 47q23 9 39 9q15 0 24 -16t9 -25q0 -25 -35 -38l-115 -47q-24 -9 -39 -9
z" />
    <glyph glyph-name="agrave" unicode="&#x2c6;" horiz-adv-x="556" 
d="M269 70q74 0 110 59t36 115q0 101 -36 159q-36 59 -110 59t-110 -59t-36 -137q0 -79 36 -137q36 -59 110 -59zM281 538q68 0 133 -71h2v28q0 23 14 33t26 10q14 0 28 -10t14 -33v-458q0 -23 -14 -33t-28 -10t-26 10q-14 10 -14 33v37h-2q-57 -80 -155 -80t-161 80
t-63 192t63 192t183 80zM167 701q0 9 9 25t24 16t39 -9l115 -47q35 -13 35 -37q0 -11 -9 -27t-24 -15q-15 0 -39 9l-115 47q-35 13 -35 38z" />
    <glyph glyph-name="ograve" unicode="&#x2dc;" horiz-adv-x="538" 
d="M269 70q74 0 110 59t36 115q0 101 -36 159q-36 59 -110 59t-110 -59t-36 -137q0 -79 36 -137q36 -59 110 -59zM35 266q-1 53 15 102t46 87q30 39 74 61t99 22t99 -22t74 -61q30 -38 46 -87t15 -102q1 -53 -15 -102t-46 -87q-30 -39 -74 -61t-99 -22t-99 22t-74 61
q-30 38 -46 87t-15 102zM158 701q0 9 9 25t24 16t39 -9l115 -47q35 -13 35 -37q0 -11 -9 -27t-24 -15q-15 0 -39 9l-115 47q-35 13 -35 38z" />
    <glyph glyph-name="ntilde" unicode="&#x2013;" horiz-adv-x="538" 
d="M102 -6q-44 0 -44 47v450q0 47 44 47t44 -47v-21l2 -2q53 70 147 70q119 0 167 -108q18 -38 18 -94v-295q0 -47 -44 -47t-44 47v290q0 97 -79 123q-22 8 -44 8q-49 0 -86 -33t-37 -98v-290q0 -47 -44 -47zM120 658q0 20 26 40t54 20q38 0 70 -10q31 -10 48 -10
q21 0 38 10q18 10 29 10t22 -12t11 -30q0 -20 -26 -40t-54 -20q-38 0 -70 10q-31 10 -47 10q-21 0 -39 -10t-29 -10t-22 12q-11 10 -11 30z" />
    <glyph glyph-name="oacute" unicode="&#x2014;" horiz-adv-x="538" 
d="M269 70q74 0 110 59t36 115q0 101 -36 159q-36 59 -110 59t-110 -59t-36 -137q0 -79 36 -137q36 -59 110 -59zM35 266q-1 53 15 102t46 87q30 39 74 61t99 22t99 -22t74 -61q30 -38 46 -87t15 -102q1 -53 -15 -102t-46 -87q-30 -39 -74 -61t-99 -22t-99 22t-74 61
q-30 38 -46 87t-15 102zM191 607q-15 -1 -24 15t-9 26q0 25 35 38l115 47q23 9 39 9q15 0 24 -16t9 -25q0 -25 -35 -38l-115 -47q-24 -9 -39 -9z" />
    <glyph glyph-name="edieresis" unicode="&#x2018;" horiz-adv-x="520" 
d="M406 298q0 64 -26 99q-47 65 -118 67t-108 -47q-38 -49 -40 -119h292zM445 232h-331q0 -110 91 -150q29 -12 69 -12t70 12q28 12 48 24q20 14 34 25t25 11q12 0 22 -10t10 -28q0 -35 -69 -72q-69 -38 -139 -38q-126 0 -187 78q-62 78 -62 192t65 194t172 80t169 -79
t62 -180q0 -23 -10 -35t-39 -12zM299 658q-1 22 15 38t39 16t39 -16t15 -38q1 -22 -15 -38t-39 -16t-39 16t-15 38zM113 658q-1 22 15 38t39 16t39 -16t15 -38q1 -22 -15 -38t-39 -16t-39 16t-15 38z" />
    <glyph glyph-name="iacute" unicode="&#x2019;" 
d="M102 538q44 0 44 -47v-450q0 -47 -44 -47t-44 47v450q0 47 44 47zM24 607q-15 -1 -24 15t-9 26q0 25 35 38l115 47q23 9 39 9q15 0 24 -16t9 -25q0 -25 -35 -38l-115 -47q-24 -9 -39 -9z" />
    <glyph glyph-name="Ccedilla" unicode="&#x201a;" horiz-adv-x="593" 
d="M337 -83q-11 2 -37 2t-26 22q0 7 10 22l23 33q-131 14 -203.5 117.5t-72.5 247.5t83.5 250.5t233.5 106.5q87 0 146.5 -36.5t59.5 -60.5q0 -49 -36 -49q-15 0 -56.5 35t-106.5 35q-66 0 -108.5 -25.5t-69.5 -66.5t-39.5 -92t-12.5 -133t56 -168.5t162 -86.5q62 0 103 22
t57.5 32t30.5 10q35 0 35 -38t-63 -68.5t-147 -32.5l-25 -37q12 3 25 3q26 0 45.5 -17.5t19.5 -37.5q0 -86 -111 -86q-73 0 -73 35q0 27 21 27l52 -8q35 0 35 27q0 14 -11 16z" />
    <glyph glyph-name="igrave" unicode="&#x201c;" 
d="M102 538q44 0 44 -47v-450q0 -47 -44 -47t-44 47v450q0 47 44 47zM-9 701q0 9 9 25t24 16t39 -9l115 -47q35 -13 35 -37q0 -11 -9 -27t-24 -15q-15 0 -39 9l-115 47q-35 13 -35 38z" />
    <glyph glyph-name="icircumflex" unicode="&#x201d;" 
d="M102 538q44 0 44 -47v-450q0 -47 -44 -47t-44 47v450q0 47 44 47zM-14 607q-36 0 -36 38q0 25 23 35l129 55l129 -55q23 -10 23 -35q0 -38 -36 -38q-10 0 -22 5l-94 37l-94 -37q-12 -5 -22 -5z" />
    <glyph glyph-name="Ntilde" unicode="&#x201e;" horiz-adv-x="668" 
d="M566 718q44 0 44 -47v-625q0 -52 -40 -52q-20 0 -32 10t-30 36l-360 517h-2v-516q0 -47 -44 -47t-44 47v625q0 52 40 52q20 0 32 -10t30 -36l360 -517h2v516q0 47 44 47zM185 818q-1 20 25 40t56 20q40 0 70 -10q31 -10 47 -10q21 0 38 10q18 10 29 10t22 -12t11 -30
q1 -20 -25 -40t-56 -20q-40 0 -70 10q-31 10 -46 10q-21 0 -39 -10t-29 -10t-22 12q-11 10 -11 30z" />
    <glyph glyph-name="Udieresis" unicode="&#x2020;" horiz-adv-x="668" 
d="M566 718q44 0 44 -47v-389q0 -162 -92 -234q-70 -54 -184 -54q-184 0 -250 142q-26 56 -26 146v389q0 47 44 47t44 -47v-423q0 -84 52 -131t136 -47t136 47t52 131v423q0 47 44 47zM373 818q-1 22 15 38t39 16t39 -16t15 -38q1 -22 -15 -38t-39 -16t-39 16t-15 38z
M187 818q-1 22 15 38t39 16t39 -16t15 -38q1 -22 -15 -38t-39 -16t-39 16t-15 38z" />
    <glyph glyph-name="aacute" unicode="&#x2021;" horiz-adv-x="556" 
d="M269 70q74 0 110 59t36 115q0 101 -36 159q-36 59 -110 59t-110 -59t-36 -137q0 -79 36 -137q36 -59 110 -59zM281 538q68 0 133 -71h2v28q0 23 14 33t26 10q14 0 28 -10t14 -33v-458q0 -23 -14 -33t-28 -10t-26 10q-14 10 -14 33v37h-2q-57 -80 -155 -80t-161 80
t-63 192t63 192t183 80zM200 607q-15 -1 -24 15t-9 26q0 25 35 38l115 47q23 9 39 9q15 0 24 -16t9 -25q0 -25 -35 -38l-115 -47q-24 -9 -39 -9z" />
    <glyph glyph-name="idieresis" unicode="&#x2022;" 
d="M102 538q44 0 44 -47v-450q0 -47 -44 -47t-44 47v450q0 47 44 47zM141 658q-1 22 15 38t39 16t39 -16t15 -38q1 -22 -15 -38t-39 -16t-39 16t-15 38zM-45 658q-1 22 15 38t39 16t39 -16t15 -38q1 -22 -15 -38t-39 -16t-39 16t-15 38z" />
    <glyph glyph-name="Odieresis" unicode="&#x2026;" horiz-adv-x="686" 
d="M31 356q0 68 20 134q19 66 59 116t98 82q58 30 135 30t135 -30t98 -82q40 -50 59 -116q20 -66 20 -134t-20 -134q-19 -66 -59 -116t-98 -82q-58 -30 -135 -30t-135 30t-98 82q-40 50 -59 116q-20 66 -20 134zM125 356q-1 -51 11 -102t38 -92q26 -40 68 -66t101 -26
t101 26t68 66q26 41 38 92t11 102q1 51 -11 102t-38 92q-26 40 -68 66t-101 26t-101 -26t-68 -66q-26 -41 -38 -92t-11 -102zM382 818q0 22 16 38t38 16t38 -16t16 -38t-16 -38t-38 -16t-38 16t-16 38zM196 818q0 22 16 38t38 16t38 -16t16 -38t-16 -38t-38 -16t-38 16
t-16 38z" />
    <glyph glyph-name="acircumflex" unicode="&#x2030;" horiz-adv-x="556" 
d="M269 70q74 0 110 59t36 115q0 101 -36 159q-36 59 -110 59t-110 -59t-36 -137q0 -79 36 -137q36 -59 110 -59zM281 538q68 0 133 -71h2v28q0 23 14 33t26 10q14 0 28 -10t14 -33v-458q0 -23 -14 -33t-28 -10t-26 10q-14 10 -14 33v37h-2q-57 -80 -155 -80t-161 80
t-63 192t63 192t183 80zM162 607q-36 0 -36 38q0 25 23 35l129 55l129 -55q23 -10 23 -35q0 -38 -36 -38q-10 0 -22 5l-94 37l-94 -37q-12 -5 -22 -5z" />
    <glyph glyph-name="atilde" unicode="&#x2039;" horiz-adv-x="556" 
d="M269 70q74 0 110 59t36 115q0 101 -36 159q-36 59 -110 59t-110 -59t-36 -137q0 -79 36 -137q36 -59 110 -59zM281 538q68 0 133 -71h2v28q0 23 14 33t26 10q14 0 28 -10t14 -33v-458q0 -23 -14 -33t-28 -10t-26 10q-14 10 -14 33v37h-2q-57 -80 -155 -80t-161 80
t-63 192t63 192t183 80zM129 658q-1 20 25 40t56 20q40 0 70 -10q31 -10 47 -10q21 0 38 10q18 10 29 10t22 -12t11 -30q1 -20 -25 -40t-56 -20q-40 0 -70 10q-31 10 -46 10q-21 0 -39 -10t-29 -10t-22 12q-11 10 -11 30z" />
    <glyph glyph-name="otilde" unicode="&#x203a;" horiz-adv-x="538" 
d="M269 70q74 0 110 59t36 115q0 101 -36 159q-36 59 -110 59t-110 -59t-36 -137q0 -79 36 -137q36 -59 110 -59zM35 266q-1 53 15 102t46 87q30 39 74 61t99 22t99 -22t74 -61q30 -38 46 -87t15 -102q1 -53 -15 -102t-46 -87q-30 -39 -74 -61t-99 -22t-99 22t-74 61
q-30 38 -46 87t-15 102zM120 658q0 20 26 40t54 20q38 0 70 -10q31 -10 48 -10q21 0 38 10q18 10 29 10t22 -12t11 -30q0 -20 -26 -40t-54 -20q-38 0 -70 10q-31 10 -47 10q-21 0 -39 -10t-29 -10t-22 12q-11 10 -11 30z" />
    <glyph glyph-name="ocircumflex" unicode="&#x2122;" horiz-adv-x="538" 
d="M269 70q74 0 110 59t36 115q0 101 -36 159q-36 59 -110 59t-110 -59t-36 -137q0 -79 36 -137q36 -59 110 -59zM35 266q-1 53 15 102t46 87q30 39 74 61t99 22t99 -22t74 -61q30 -38 46 -87t15 -102q1 -53 -15 -102t-46 -87q-30 -39 -74 -61t-99 -22t-99 22t-74 61
q-30 38 -46 87t-15 102zM153 607q-36 0 -36 38q0 25 23 35l129 55l129 -55q23 -10 23 -35q0 -38 -36 -38q-10 0 -22 5l-94 37l-94 -37q-12 -5 -22 -5z" />
  </font>
</defs>
</svg>
